<svg width="42" height="42" viewBox="0 0 42 42" fill="none" xmlns="http://www.w3.org/2000/svg">
<g clip-path="url(#clip0_4674_70)">
<path d="M27.6797 1.73047C25.4908 1.73047 6.91992 1.73047 6.91992 1.73047C5.00829 1.73047 3.45996 3.2788 3.45996 5.19043C3.45996 5.19043 3.45996 27.1679 3.45996 29.4102C3.45996 31.6524 6.91992 31.6237 6.91992 29.4102C6.91992 27.1966 6.91992 5.19043 6.91992 5.19043C6.91992 5.19043 25.442 5.19043 27.6797 5.19043C29.9173 5.19043 29.8686 1.73047 27.6797 1.73047ZM32.8696 8.65039H13.8398C11.9282 8.65039 10.3799 10.1987 10.3799 12.1104V36.3301C10.3799 38.2417 11.9282 39.79 13.8398 39.79H32.8696C34.7813 39.79 36.3296 38.2417 36.3296 36.3301V12.1104C36.3296 10.1987 34.7813 8.65039 32.8696 8.65039ZM32.8696 36.3301H13.8398V12.1104H32.8696V36.3301Z" fill="url(#paint0_linear_4674_70)"/>
</g>
<defs>
<linearGradient id="paint0_linear_4674_70" x1="19.8948" y1="1.73047" x2="19.8948" y2="39.79" gradientUnits="userSpaceOnUse">
<stop stop-color="#FCB62A"/>
<stop offset="1" stop-color="#F26924"/>
</linearGradient>
<clipPath id="clip0_4674_70">
<rect width="41.5195" height="41.5195" fill="white"/>
</clipPath>
</defs>
</svg>
