<svg width="11" height="13" viewBox="0 0 11 13" fill="none" xmlns="http://www.w3.org/2000/svg">
<path d="M9.42654 0.182508L2.17033 5.26185C2.10636 5.30663 2.04958 5.35703 2 5.41179V1.08108C2 0.528799 1.55228 0.0810843 1 0.0810843C0.447715 0.0810843 0 0.528799 0 1.08108V11.0811C0 11.6334 0.447715 12.0811 1 12.0811C1.55228 12.0811 2 11.6334 2 11.0811V6.75038C2.04958 6.80513 2.10636 6.85553 2.17033 6.90032L9.42654 11.9797C10.0893 12.4436 11 11.9695 11 11.1604V1.00174C11 0.192717 10.0893 -0.281436 9.42654 0.182508Z" fill="url(#paint0_linear_4718_61)"/>
<defs>
<linearGradient id="paint0_linear_4718_61" x1="5.5" y1="0" x2="5.5" y2="12.1622" gradientUnits="userSpaceOnUse">
<stop stop-color="#FCB62A"/>
<stop offset="1" stop-color="#FD870B"/>
</linearGradient>
</defs>
</svg>
