<svg width="108" height="107" viewBox="0 0 108 107" fill="none" xmlns="http://www.w3.org/2000/svg">
<path fill-rule="evenodd" clip-rule="evenodd" d="M51.0694 2.06509C51.9975 -0.688364 55.8923 -0.688364 56.8204 2.06509L62.1221 17.7946C62.7951 19.7903 65.2466 20.5102 66.8916 19.195L79.8565 8.82876C82.1259 7.01456 85.4022 9.12013 84.6944 11.9381L80.6504 28.0368C80.1373 30.0798 81.8111 32.0108 83.9063 31.7936L100.416 30.0827C103.306 29.7831 104.924 33.3251 102.805 35.3131L90.6993 46.6706C89.1633 48.1118 89.5273 50.6415 91.4073 51.5915L106.222 59.0778C108.815 60.3883 108.261 64.2434 105.403 64.7702L89.0801 67.779C87.0086 68.1609 85.9469 70.4858 87.0147 72.3014L95.4297 86.609C96.9029 89.1135 94.3528 92.0573 91.6641 90.9557L76.3047 84.6618C74.3556 83.8631 72.2054 85.2445 72.1221 87.3493L71.4668 103.935C71.3521 106.839 67.6155 107.936 65.9493 105.555L56.4307 91.9567C55.2228 90.2311 52.6671 90.2313 51.459 91.9567L41.9405 105.555C40.2742 107.936 36.5377 106.839 36.4229 103.935L35.7667 87.3493C35.6834 85.2445 33.5332 83.8631 31.584 84.6618L16.2247 90.9557C13.5361 92.0569 10.986 89.1134 12.459 86.609L20.875 72.3014C21.9426 70.4858 20.8809 68.1609 18.8096 67.779L2.4854 64.7702C-0.372016 64.2433 -0.926271 60.3883 1.66704 59.0778L16.4815 51.5915C18.3615 50.6414 18.7257 48.1118 17.1895 46.6706L5.08403 35.3131C2.9652 33.3251 4.58267 29.7832 7.47271 30.0827L23.9834 31.7936C26.0786 32.0107 27.7524 30.0797 27.2393 28.0368L23.1954 11.9381C22.4875 9.12002 25.7639 7.01418 28.0333 8.82876L40.9971 19.195C42.6423 20.5104 45.0947 19.7906 45.7676 17.7946L51.0694 2.06509ZM53.9444 27.7526C39.1908 27.7527 27.2307 39.7129 27.2305 54.4665C27.2305 69.2202 39.1907 81.1812 53.9444 81.1813C68.6981 81.1813 80.6582 69.2202 80.6582 54.4665C80.658 39.7129 68.698 27.7526 53.9444 27.7526Z" fill="#FFF19C"/>
</svg>
