<svg width="109" height="108" viewBox="0 0 109 108" fill="none" xmlns="http://www.w3.org/2000/svg">
<g filter="url(#filter0_f_4480_569)">
<path fill-rule="evenodd" clip-rule="evenodd" d="M51.5693 2.56479C52.4976 -0.188211 56.3921 -0.188315 57.3203 2.56479L62.622 18.2943C63.2948 20.2902 65.7464 21.0107 67.3915 19.6957L80.3564 9.32944C82.6256 7.51507 85.9016 9.62 85.1943 12.4378L81.1503 28.5374C80.6374 30.5804 82.311 32.5115 84.4062 32.2943L100.916 30.5833C103.806 30.2838 105.424 33.8257 103.306 35.8138L91.1992 47.1712C89.6634 48.6125 90.0273 51.1422 91.9072 52.0921L106.722 59.5785C109.315 60.889 108.761 64.744 105.903 65.2708L89.58 68.2796C87.5085 68.6615 86.4466 70.9864 87.5146 72.8021L95.9296 87.1097C97.4028 89.6143 94.8527 92.5571 92.164 91.4554L76.8046 85.1615C74.8555 84.3629 72.7052 85.7452 72.622 87.8499L71.9667 104.436C71.8519 107.339 68.1154 108.436 66.4492 106.056L56.9306 92.4574C55.7227 90.7317 53.1669 90.7317 51.9589 92.4574L42.4404 106.056C40.7742 108.436 37.0377 107.339 36.9228 104.436L36.2666 87.8499C36.1834 85.7453 34.0339 84.3632 32.0849 85.1615L16.7246 91.4554C14.036 92.5568 11.4861 89.6141 12.9589 87.1097L21.375 72.8021C22.4428 70.9865 21.3809 68.6616 19.3095 68.2796L2.9853 65.2708C0.127938 64.744 -0.426174 60.889 2.16694 59.5785L16.9824 52.0921C18.8621 51.142 19.2254 48.6124 17.6894 47.1712L5.58393 35.8138C3.46489 33.8258 5.08251 30.2839 7.97261 30.5833L24.4833 32.2943C26.5784 32.5114 28.2521 30.5803 27.7392 28.5374L23.6953 12.4378C22.9878 9.61991 26.2639 7.51493 28.5332 9.32944L41.497 19.6957C43.1422 21.011 45.5947 20.2904 46.2675 18.2943L51.5693 2.56479ZM54.4443 28.2533C39.6906 28.2534 27.7305 40.2135 27.7304 54.9671C27.7304 69.7208 39.6906 81.6809 54.4443 81.681C69.198 81.681 81.1581 69.7209 81.1581 54.9671C81.1581 40.2134 69.198 28.2533 54.4443 28.2533Z" fill="#FFF19C"/>
</g>
<defs>
<filter id="filter0_f_4480_569" x="0" y="0" width="108.889" height="107.855" filterUnits="userSpaceOnUse" color-interpolation-filters="sRGB">
<feFlood flood-opacity="0" result="BackgroundImageFix"/>
<feBlend mode="normal" in="SourceGraphic" in2="BackgroundImageFix" result="shape"/>
<feGaussianBlur stdDeviation="0.25" result="effect1_foregroundBlur_4480_569"/>
</filter>
</defs>
</svg>
