<svg width="802" height="2211" viewBox="0 0 802 2211" fill="none" xmlns="http://www.w3.org/2000/svg">
<path d="M279.229 858.375H448.832C302.886 745.635 288.23 690.576 335.152 666.801C350.947 658.797 292.454 659.243 292.454 659.243L252.245 678.056C223.977 748.2 238.743 796.714 279.229 858.375Z" fill="url(#paint0_linear_4524_29)"/>
<path d="M448.833 858.371C464.602 873.782 480.372 887.382 495.558 897.961C530.459 922.273 560.845 954.132 566.136 997.664C571.33 1040.4 549.309 1073.17 536.472 1090.29C529.594 1099.46 521.55 1108.85 516.219 1115.26C510.111 1122.61 506.03 1127.82 503.083 1132.35C502.04 1133.95 501.325 1135.19 500.841 1136.09C510.505 1166.1 542.875 1202.66 584.992 1236.78C605.13 1253.09 624.665 1266.61 639.21 1276.07C646.442 1280.77 652.338 1284.4 656.328 1286.8C658.32 1288 659.83 1288.88 660.785 1289.44C661.262 1289.72 661.6 1289.91 661.79 1290.02C661.848 1290.05 661.893 1290.08 661.922 1290.1V1290.1C684.97 1303.09 697.545 1329.02 693.479 1355.17L656.943 1590.12C652.791 1616.82 632.218 1637.92 605.742 1642.81L604.522 1643.02C604.489 1643.03 604.419 1643.04 604.315 1643.06C604.082 1643.1 603.673 1643.17 603.097 1643.27C601.945 1643.48 600.129 1643.81 597.727 1644.27C592.917 1645.19 585.788 1646.64 576.95 1648.66C559.183 1652.71 534.967 1658.97 509.025 1667.72C453.16 1686.59 404.551 1712.16 383.282 1740.52C374.402 1752.36 372.271 1762.2 372.832 1771.79C373.481 1782.9 378.154 1798.07 390.316 1817.58C415.261 1857.61 462.501 1901.5 520.193 1943.92C576.678 1985.44 638.013 2021.85 685.751 2048.08C709.499 2061.13 729.613 2071.51 743.711 2078.59C750.755 2082.13 756.283 2084.84 759.997 2086.63C761.853 2087.53 763.254 2088.2 764.164 2088.63C764.618 2088.85 764.949 2089.01 765.153 2089.1C765.254 2089.15 765.325 2089.19 765.362 2089.2C765.376 2089.21 765.384 2089.21 765.389 2089.22C797.136 2104.1 810.812 2141.9 795.935 2173.65C781.056 2205.41 743.251 2219.09 711.494 2204.21L738.248 2147.11C711.823 2203.51 711.485 2204.2 711.466 2204.2C711.459 2204.2 711.441 2204.19 711.425 2204.18C711.394 2204.17 711.355 2204.15 711.307 2204.12C711.212 2204.08 711.084 2204.02 710.923 2203.94C710.602 2203.79 710.151 2203.58 709.575 2203.3C708.423 2202.76 706.77 2201.97 704.656 2200.94C700.426 2198.89 694.34 2195.91 686.704 2192.08C671.441 2184.41 649.924 2173.3 624.597 2159.39C574.187 2131.69 507.596 2092.28 444.967 2046.24C383.545 2001.08 320.484 1945.65 282.532 1884.75C263.245 1853.8 248.32 1818.1 246.047 1779.2C243.686 1738.79 255.308 1699.49 281.679 1664.33C328.07 1602.46 410.32 1567.01 468.398 1547.4C494.473 1538.59 518.782 1532 538.183 1527.32L561.56 1376.99C545.55 1366.29 525.702 1352.19 505.048 1335.46C459.602 1298.64 396.706 1238.54 377.15 1165.51C365.415 1121.69 381.831 1085.85 396.615 1063.12C403.913 1051.89 412.117 1041.83 418.546 1034.09C425.753 1025.42 430.499 1019.92 434.876 1014.08C435.304 1013.51 435.702 1012.97 436.072 1012.46C433.233 1009.84 429.047 1006.4 422.966 1002.17C369.635 965.018 318.282 907.588 279.234 858.371H448.833ZM661.94 1290.1C661.949 1290.11 661.956 1290.11 661.96 1290.12C661.953 1290.11 661.94 1290.11 661.922 1290.1L661.94 1290.1Z" fill="url(#paint1_linear_4524_29)"/>
<path d="M0.0927734 22.874C1.26751 9.11717 13.3711 -1.08264 27.1279 0.0917969C48.5011 1.91668 68.2794 12.1159 85.4209 24.9883C102.765 38.013 119.183 55.1072 134.11 73.5625C163.965 110.474 189.982 155.495 207.331 192.226C233.874 248.42 229.239 304.72 221.402 349.947C219.436 361.293 217.218 372.187 215.188 382.178C213.127 392.319 211.286 401.398 209.897 409.795C207.264 425.718 206.94 435.731 208.222 442.042C208.325 442.144 208.439 442.255 208.565 442.374C210.39 444.098 213.542 446.52 218.427 449.585C228.181 455.705 241.951 462.61 258.706 470.253C275.332 477.837 293.897 485.705 313.091 493.924C332.111 502.068 351.665 510.523 369.573 519.022C387.359 527.464 404.339 536.33 417.977 545.434C430.43 553.747 444.793 565.218 451.04 580.345C454.642 589.068 455.688 599.387 451.796 609.82C448.141 619.617 441.147 626.78 433.962 631.973C420.14 641.962 399.185 649.246 372.698 655.211C330.131 664.797 311.163 678.113 302.525 690.141H248.043C249.658 684.238 251.862 678.405 254.771 672.691C271.511 639.806 307.184 618.714 361.714 606.434C381.17 602.052 393.091 597.741 399.906 594.277C397.468 592.155 394.271 589.726 390.217 587.02C379.601 579.933 365.19 572.288 348.133 564.192C331.198 556.155 312.457 548.044 293.409 539.888C274.535 531.806 255.258 523.638 237.954 515.744C220.779 507.909 204.528 499.892 191.854 491.939C185.524 487.968 179.359 483.566 174.226 478.716C169.43 474.184 163.461 467.347 160.747 458.146C155.429 440.115 157.584 419.677 160.568 401.636C162.134 392.171 164.167 382.164 166.188 372.22C168.24 362.124 170.313 351.93 172.136 341.41C179.454 299.175 181.945 255.552 162.12 213.58C145.994 179.44 121.965 138.055 95.2354 105.007C81.87 88.4823 68.3606 74.7063 55.3965 64.9707C42.2298 55.0831 31.3174 50.6311 22.874 49.9102C9.11718 48.7353 -1.08176 36.6308 0.0927734 22.874Z" fill="url(#paint2_linear_4524_29)"/>
<defs>
<linearGradient id="paint0_linear_4524_29" x1="364.247" y1="659.238" x2="364.247" y2="858.375" gradientUnits="userSpaceOnUse">
<stop stop-color="#FDA31D"/>
<stop offset="1" stop-color="#FCB127"/>
</linearGradient>
<linearGradient id="paint1_linear_4524_29" x1="501.024" y1="2210.23" x2="409.835" y2="858.371" gradientUnits="userSpaceOnUse">
<stop stop-color="#FF7B02"/>
<stop offset="1" stop-color="#FCB128"/>
</linearGradient>
<linearGradient id="paint2_linear_4524_29" x1="454.268" y1="329.619" x2="0" y2="329.619" gradientUnits="userSpaceOnUse">
<stop stop-color="#FCB62A"/>
<stop offset="1" stop-color="#FF7C01"/>
</linearGradient>
</defs>
</svg>
