<svg width="414" height="497" viewBox="0 0 414 497" fill="none" xmlns="http://www.w3.org/2000/svg">
<g clip-path="url(#clip0_4546_126)">
<path d="M229.964 63.2662C178.316 57.5419 92.7392 38.186 45.9186 21.6385C5.25418 7.26668 -42.2625 -32.3276 -42.2625 -32.3276M229.964 63.2666C240.74 96.2165 128.457 116.134 128.457 116.134L127.876 177.587C127.876 177.587 60.0007 193.142 40.5504 218.79C0.0152398 272.24 227.821 297.048 227.821 297.048" stroke="url(#paint0_linear_4546_126)" stroke-width="44.9173" stroke-linecap="round" stroke-linejoin="round"/>
<path d="M-118.347 385.969C-68.5482 396.71 11.7496 424.338 54.3447 445.387C91.3393 463.669 129.45 507.739 129.45 507.739M-118.347 385.968C-121.609 352.1 115.397 317.616 115.397 317.616L47.5212 215.35C47.5212 215.35 124.396 292.356 149.39 268.71C201.478 219.431 -63.7583 153.342 -63.7583 153.342" stroke="url(#paint1_linear_4546_126)" stroke-width="44.9173" stroke-linecap="round" stroke-linejoin="round"/>
<path d="M-46.4381 331.269C-55.679 339.102 10.1929 302.095 21.7003 273.306C29.8098 253.018 -41.067 216.422 22.3513 215.804L-46.5997 175.258C-46.5997 175.258 -40.5848 149.151 -61.1916 129.081C-76.0686 114.591 -103.375 93.031 -122.754 89.7629" stroke="url(#paint2_linear_4546_126)" stroke-width="44.9173" stroke-linecap="round" stroke-linejoin="round"/>
<path d="M-3.26849 330.988C-12.3659 338.894 52.8263 301.364 63.8079 272.485C71.5468 252.133 0.00778062 216.107 63.4102 214.982L-6.2753 174.989C-6.2753 174.989 -0.736853 148.836 -21.7082 128.932C-36.8484 114.563 -64.5462 93.2222 -83.9829 90.1091" stroke="url(#paint3_linear_4546_126)" stroke-width="44.9173" stroke-linecap="round" stroke-linejoin="round"/>
<path d="M-136.37 103.961C-145.611 96.129 -79.7388 133.135 -68.2313 161.924C-60.1218 182.213 -130.999 218.808 -67.5803 219.426L-136.531 259.973C-136.531 259.973 -130.516 286.08 -151.123 306.15C-166 320.639 -193.307 342.2 -212.685 345.468" stroke="url(#paint4_linear_4546_126)" stroke-width="44.9173" stroke-linecap="round" stroke-linejoin="round"/>
<path d="M-266.592 182.087C-281.529 181.081 -195.581 175.224 -156.22 189.651C-128.482 199.818 -137.624 259.006 -93.0596 229.136L-96.5606 290.139C-96.5606 290.139 -63.9262 305.333 -56.3 329.068C-50.7943 346.204 -46.18 374.171 -56.0275 385.69" stroke="url(#paint5_linear_4546_126)" stroke-width="44.9173" stroke-linecap="round" stroke-linejoin="round"/>
<path d="M-223.287 172.462C-238.224 171.456 -152.276 165.599 -112.915 180.026C-85.1769 190.193 -94.3197 249.381 -49.7549 219.511L-53.2559 280.514C-53.2559 280.514 -20.6215 295.708 -12.9953 319.443C-7.48958 336.579 -2.87528 364.546 -12.7228 376.065" stroke="url(#paint6_linear_4546_126)" stroke-width="44.9173" stroke-linecap="round" stroke-linejoin="round"/>
<path d="M-112.227 173.793C-123.415 167.167 -31.1297 207.217 -12.1094 234.205C1.29455 253.224 -58.6837 297.54 3.89956 290.723L-53.1274 338.703C-53.1274 338.703 -40.2298 363.694 -55.1476 385.861C-65.9174 401.863 -87.0311 426.281 -105.231 431.766" stroke="url(#paint7_linear_4546_126)" stroke-width="44.9173" stroke-linecap="round" stroke-linejoin="round"/>
<path d="M156.614 402.258C156.614 402.258 -41.6317 340.783 9.47634 295.677C34 274.033 104.335 266.397 104.335 266.397L117.578 210.032C117.578 210.032 57.9597 187.801 47.8989 162.935C40.5724 144.827 98.3225 134.969 55.4284 115.192C18.1741 98.0158 -20.6573 57.0113 -20.6573 57.0113" stroke="url(#paint8_linear_4546_126)" stroke-width="44.9173" stroke-linecap="round" stroke-linejoin="round"/>
<path d="M503.607 352.794C522.209 359.505 430.186 305.877 365.984 303.373C320.74 301.609 255.027 382.811 241.904 320.414L167.316 400.93C167.316 400.93 109.918 403.022 70.4834 429.531C42.0138 448.668 0.612747 482.247 -2.82941 502.377" stroke="url(#paint9_linear_4546_126)" stroke-width="44.9173" stroke-linecap="round" stroke-linejoin="round"/>
<path d="M203.764 -147.478C203.764 -147.478 324.189 -36.376 262.732 52.7795C233.242 95.5598 159.85 116.206 159.85 116.206L134.745 223.058C134.745 223.058 15.6579 247.098 13.1707 305.437C62.0068 320.277 138.984 362.037 178.722 395.248C213.235 424.093 244.462 497.464 244.462 497.464" stroke="url(#paint10_linear_4546_126)" stroke-width="44.9173" stroke-linecap="round" stroke-linejoin="round"/>
</g>
<defs>
<linearGradient id="paint0_linear_4546_126" x1="95.8712" y1="-31.7555" x2="94.4307" y2="316.355" gradientUnits="userSpaceOnUse">
<stop stop-color="#FCB62A"/>
<stop offset="1" stop-color="#FF7B02"/>
</linearGradient>
<linearGradient id="paint1_linear_4546_126" x1="-7.04554" y1="493.691" x2="29.0828" y2="142.66" gradientUnits="userSpaceOnUse">
<stop stop-color="#FCB62A"/>
<stop offset="1" stop-color="#FF7B02"/>
</linearGradient>
<linearGradient id="paint2_linear_4546_126" x1="-5.51608" y1="143.832" x2="-86.6892" y2="313.456" gradientUnits="userSpaceOnUse">
<stop stop-color="#FCB62A"/>
<stop offset="1" stop-color="#FF7C01"/>
</linearGradient>
<linearGradient id="paint3_linear_4546_126" x1="34.2323" y1="143.237" x2="-44.9505" y2="312.981" gradientUnits="userSpaceOnUse">
<stop stop-color="#FCB62A"/>
<stop offset="1" stop-color="#FF7C01"/>
</linearGradient>
<linearGradient id="paint4_linear_4546_126" x1="-95.4477" y1="291.399" x2="-176.621" y2="121.774" gradientUnits="userSpaceOnUse">
<stop stop-color="#FCB62A"/>
<stop offset="1" stop-color="#FF7C01"/>
</linearGradient>
<linearGradient id="paint5_linear_4546_126" x1="-33.8546" y1="292.261" x2="-280.639" y2="240.338" gradientUnits="userSpaceOnUse">
<stop stop-color="#FCB62A"/>
<stop offset="1" stop-color="#FF7C01"/>
</linearGradient>
<linearGradient id="paint6_linear_4546_126" x1="9.45009" y1="282.636" x2="-237.334" y2="230.713" gradientUnits="userSpaceOnUse">
<stop stop-color="#FCB62A"/>
<stop offset="1" stop-color="#FF7C01"/>
</linearGradient>
<linearGradient id="paint7_linear_4546_126" x1="-4.29264" y1="364.823" x2="-117.898" y2="199.396" gradientUnits="userSpaceOnUse">
<stop stop-color="#FCB62A"/>
<stop offset="1" stop-color="#FF7C01"/>
</linearGradient>
<linearGradient id="paint8_linear_4546_126" x1="115.839" y1="71.0594" x2="82.5361" y2="394.634" gradientUnits="userSpaceOnUse">
<stop stop-color="#FCB62A"/>
<stop offset="1" stop-color="#FF7B02"/>
</linearGradient>
<linearGradient id="paint9_linear_4546_126" x1="91.9312" y1="370.049" x2="350.01" y2="562.506" gradientUnits="userSpaceOnUse">
<stop stop-color="#FCB62A"/>
<stop offset="1" stop-color="#FF7C01"/>
</linearGradient>
<linearGradient id="paint10_linear_4546_126" x1="107.966" y1="483.416" x2="171.098" y2="-129.991" gradientUnits="userSpaceOnUse">
<stop stop-color="#FCB62A"/>
<stop offset="1" stop-color="#FF7B02"/>
</linearGradient>
<clipPath id="clip0_4546_126">
<rect width="414" height="497" fill="white"/>
</clipPath>
</defs>
</svg>
