<svg width="1440" height="862" viewBox="0 0 1440 862" fill="none" xmlns="http://www.w3.org/2000/svg">
<g clip-path="url(#clip0_4522_213)">
<path d="M888.42 -190.186C745.923 -214.048 509.816 -294.734 380.638 -363.713C268.445 -423.622 137.346 -588.673 137.346 -588.673M888.42 -190.184C918.149 -52.8311 608.361 30.1955 608.361 30.1955L606.759 286.365C606.759 286.365 419.49 351.207 365.827 458.121C253.99 680.932 882.507 784.343 882.507 784.343" stroke="url(#paint0_linear_4522_213)" stroke-width="127" stroke-linecap="round" stroke-linejoin="round"/>
<path d="M-60.7769 1079.18C76.8963 1122.16 299.397 1231.17 417.741 1313.61C520.526 1385.21 627.662 1556.14 627.662 1556.14M-60.7769 1079.17C-71.4377 948.669 579.547 823.664 579.547 823.664L387.562 427.695C387.562 427.695 603.08 726.702 670.74 636.479C811.748 448.451 78.0394 185.308 78.0394 185.308" stroke="url(#paint1_linear_4522_213)" stroke-width="127" stroke-linecap="round" stroke-linejoin="round"/>
<path d="M125.828 927.004C100.332 959.652 282.073 805.389 313.822 685.381C336.196 600.808 140.647 448.257 315.618 445.683L125.382 276.661C125.382 276.661 141.977 167.834 85.1231 84.1708C44.0775 23.7707 -31.2616 -66.1037 -84.7268 -79.7269" stroke="url(#paint2_linear_4522_213)" stroke-width="127" stroke-linecap="round" stroke-linejoin="round"/>
<path d="M238.95 927.004C213.454 959.652 395.195 805.389 426.944 685.381C449.318 600.808 253.769 448.257 428.74 445.683L238.504 276.661C238.504 276.661 255.099 167.834 198.245 84.1708C157.2 23.7707 81.8605 -66.1037 28.3953 -79.7269" stroke="url(#paint3_linear_4522_213)" stroke-width="127" stroke-linecap="round" stroke-linejoin="round"/>
<path d="M-122.296 -20.5389C-147.791 -53.1873 33.9493 101.076 65.6982 221.084C88.0723 305.657 -107.477 458.207 67.4944 460.782L-122.742 629.803C-122.742 629.803 -106.146 738.631 -163 822.294C-204.046 882.694 -279.385 972.569 -332.85 986.192" stroke="url(#paint4_linear_4522_213)" stroke-width="127" stroke-linecap="round" stroke-linejoin="round"/>
<path d="M-481.577 305.124C-522.789 300.932 -285.659 276.513 -177.062 336.653C-100.532 379.035 -125.757 625.764 -2.80276 501.25L-12.462 755.542C-12.462 755.542 77.5762 818.882 98.6169 917.822C113.807 989.252 126.538 1105.83 99.3686 1153.85" stroke="url(#paint5_linear_4522_213)" stroke-width="127" stroke-linecap="round" stroke-linejoin="round"/>
<path d="M-362.1 265.003C-403.311 260.81 -166.181 236.392 -57.5849 296.532C18.9453 338.914 -6.27955 585.642 116.675 461.129L107.016 715.421C107.016 715.421 197.054 778.76 218.094 877.701C233.285 949.131 246.016 1065.71 218.846 1113.73" stroke="url(#paint6_linear_4522_213)" stroke-width="127" stroke-linecap="round" stroke-linejoin="round"/>
<path d="M-55.6822 270.552C-86.551 242.929 168.064 409.881 220.541 522.38C257.522 601.661 92.0424 786.398 264.71 757.981L107.372 957.988C107.372 957.988 142.957 1062.16 101.799 1154.56C72.0846 1221.27 13.8319 1323.06 -36.3803 1345.92" stroke="url(#paint7_linear_4522_213)" stroke-width="127" stroke-linecap="round" stroke-linejoin="round"/>
<path d="M669.351 1291.5C669.351 1291.5 122.39 1035.24 263.397 847.212C331.058 756.989 525.113 725.157 525.113 725.157L561.65 490.197C561.65 490.197 397.163 397.526 369.405 293.872C349.191 218.388 508.524 177.293 390.179 94.8539C287.394 23.2539 180.259 -147.675 180.259 -147.675" stroke="url(#paint8_linear_4522_213)" stroke-width="127" stroke-linecap="round" stroke-linejoin="round"/>
<path d="M1650.17 1003.02C1701.86 1030.24 1434.16 834.672 1267.85 802.309C1150.65 779.503 1029.51 996.106 959.25 804.991L814.918 1016.11C814.918 1016.11 668.77 1000.08 583.052 1063.82C521.168 1109.84 434.543 1193.89 437.501 1252.57" stroke="url(#paint9_linear_4522_213)" stroke-width="127" stroke-linecap="round" stroke-linejoin="round"/>
<path d="M280.107 884.793C417.78 927.779 640.281 1036.78 758.625 1119.22C861.41 1190.82 968.546 1361.75 968.546 1361.75M280.107 884.792C269.446 754.287 587.154 723.881 587.154 723.881L623.691 488.921C623.691 488.921 817.746 457.088 885.407 366.865C1026.41 178.838 664.644 -94.4673 664.644 -94.4673" stroke="url(#paint10_linear_4522_213)" stroke-width="127" stroke-linecap="round" stroke-linejoin="round"/>
</g>
<defs>
<linearGradient id="paint0_linear_4522_213" x1="518.457" y1="-586.288" x2="509.384" y2="864.794" gradientUnits="userSpaceOnUse">
<stop stop-color="#FCB62A"/>
<stop offset="1" stop-color="#FF7B02"/>
</linearGradient>
<linearGradient id="paint1_linear_4522_213" x1="251.07" y1="1497.57" x2="458.033" y2="166.635" gradientUnits="userSpaceOnUse">
<stop stop-color="#FCB62A"/>
<stop offset="1" stop-color="#FF7B02"/>
</linearGradient>
<linearGradient id="paint2_linear_4522_213" x1="238.732" y1="145.661" x2="-173.887" y2="716.341" gradientUnits="userSpaceOnUse">
<stop stop-color="#FCB62A"/>
<stop offset="1" stop-color="#FF7C01"/>
</linearGradient>
<linearGradient id="paint3_linear_4522_213" x1="351.854" y1="145.661" x2="-60.7647" y2="716.341" gradientUnits="userSpaceOnUse">
<stop stop-color="#FCB62A"/>
<stop offset="1" stop-color="#FF7C01"/>
</linearGradient>
<linearGradient id="paint4_linear_4522_213" x1="-9.3918" y1="760.804" x2="-422.01" y2="190.124" gradientUnits="userSpaceOnUse">
<stop stop-color="#FCB62A"/>
<stop offset="1" stop-color="#FF7C01"/>
</linearGradient>
<linearGradient id="paint5_linear_4522_213" x1="160.544" y1="764.389" x2="-536.948" y2="667.259" gradientUnits="userSpaceOnUse">
<stop stop-color="#FCB62A"/>
<stop offset="1" stop-color="#FF7C01"/>
</linearGradient>
<linearGradient id="paint6_linear_4522_213" x1="280.021" y1="724.268" x2="-417.471" y2="627.138" gradientUnits="userSpaceOnUse">
<stop stop-color="#FCB62A"/>
<stop offset="1" stop-color="#FF7C01"/>
</linearGradient>
<linearGradient id="paint7_linear_4522_213" x1="242.107" y1="1066.87" x2="-264.954" y2="578.179" gradientUnits="userSpaceOnUse">
<stop stop-color="#FCB62A"/>
<stop offset="1" stop-color="#FF7C01"/>
</linearGradient>
<linearGradient id="paint8_linear_4522_213" x1="556.85" y1="-89.1152" x2="349.887" y2="1241.82" gradientUnits="userSpaceOnUse">
<stop stop-color="#FCB62A"/>
<stop offset="1" stop-color="#FF7B02"/>
</linearGradient>
<linearGradient id="paint9_linear_4522_213" x1="603.266" y1="894.805" x2="1494.23" y2="1334.56" gradientUnits="userSpaceOnUse">
<stop stop-color="#FCB62A"/>
<stop offset="1" stop-color="#FF7C01"/>
</linearGradient>
<linearGradient id="paint10_linear_4522_213" x1="591.954" y1="1303.19" x2="798.917" y2="-27.7445" gradientUnits="userSpaceOnUse">
<stop stop-color="#FCB62A"/>
<stop offset="1" stop-color="#FF7B02"/>
</linearGradient>
<clipPath id="clip0_4522_213">
<rect width="1440" height="862" fill="white"/>
</clipPath>
</defs>
</svg>
