<svg xmlns="http://www.w3.org/2000/svg" version="1.1" xmlns:xlink="http://www.w3.org/1999/xlink" width="1000" height="1000"><style>
    #light-icon {
      display: inline;
    }
    #dark-icon {
      display: none;
    }

    @media (prefers-color-scheme: dark) {
      #light-icon {
        display: none;
      }
      #dark-icon {
        display: inline;
      }
    }
  </style><g id="light-icon"><svg xmlns="http://www.w3.org/2000/svg" version="1.1" xmlns:xlink="http://www.w3.org/1999/xlink" width="1000" height="1000"><g><g transform="matrix(1.25,0,0,1.25,0,0)"><svg xmlns="http://www.w3.org/2000/svg" version="1.1" xmlns:xlink="http://www.w3.org/1999/xlink" width="800" height="800"><svg version="1.1" xmlns="http://www.w3.org/2000/svg" width="800" height="800">
<path d="M0 0 C19.75871653 17.46119135 22.62916112 50.15488782 27.24609375 74.515625 C32.27956808 101.69641017 32.27956808 101.69641017 42.93359375 127.0234375 C44 129 44 129 44 131 C44.66 131 45.32 131 46 131 C47.66666667 132.66666667 49.33333333 134.33333333 51 136 C59.90904273 138.96968091 68.46202139 136.20486569 76.59375 132.25390625 C91.19821965 124.58957713 103.8215124 114.05918945 116.265625 103.33984375 C123.67445743 97 123.67445743 97 126 97 C126 96.34 126 95.68 126 95 C127.765625 93.40625 127.765625 93.40625 130.25 91.5 C134.16141831 88.45656497 137.97785671 85.33943393 141.75 82.125 C146.16199518 78.44169564 150.65752373 74.93355959 155.3125 71.5625 C155.87485352 71.1495166 156.43720703 70.7365332 157.01660156 70.31103516 C163.47846802 65.70709793 169.02752128 63.21582177 177 64 C179.56453629 65.31514682 180.67931392 66.03794177 181.59375 68.78125 C185.42524217 89.70709185 170.5613548 114.0972708 162.29936218 132.75836182 C143.30394785 172.22110748 143.30394785 172.22110748 143 214 C145.82424196 219.87442328 150.12969761 222.57454572 156 225 C163.15882827 227.29699365 170.13837775 227.50312724 177.625 227.5625 C178.2938623 227.56811951 178.96272461 227.57373901 179.65185547 227.57952881 C198.07708013 227.63161691 216.1290482 224.30648789 234.24494934 221.26583862 C245.21617661 219.43737376 256.28572822 217.59747166 267.4375 217.6875 C268.19119873 217.69241455 268.94489746 217.6973291 269.72143555 217.70239258 C276.86238054 217.85314328 282.21300129 218.90975097 288 223.25 C290.47857314 226.65803806 290.92634863 228.80187199 291 233 C288.54815319 245.53166147 277.06957828 254.54685584 267.3125 261.625 C266.08116333 262.52569214 266.08116333 262.52569214 264.82495117 263.44458008 C257.31979452 268.87758198 249.57915108 273.91304258 241.78515625 278.91796875 C210.69548334 297.62959451 210.69548334 297.62959451 192 327 C191.47746469 333.01848707 193.22466899 338.26427777 197 343 C213.7839561 361.06548969 241.85833842 368.45423148 264.31152344 377.19970703 C309.85511967 394.96002612 309.85511967 394.96002612 317.15234375 407.921875 C318.65725793 411.61134202 318.57714403 414.02411888 318 418 C312.82615108 428.34769784 302.8796549 432.65380306 292.44921875 436.2109375 C274.56457245 441.76769888 255.6169648 444.28357014 237.16015625 447.28125 C210.50489844 451.25995438 210.50489844 451.25995438 185.9609375 461.80078125 C184 463 184 463 181 464 C181 464.66 181 465.32 181 466 C180.34 466 179.68 466 179 466 C175.85616691 472.49725506 175.20988723 478.5242353 177.5 485.375 C183.81671664 500.81348371 195.84173366 513.86031827 207 526 C208.15037574 527.30852052 209.2964181 528.62086703 210.4375 529.9375 C213.19784541 533.11221597 216.02792558 536.21537436 218.875 539.3125 C223.79462505 544.7151698 228.45583495 550.27915167 233 556 C233.41813965 556.52384277 233.8362793 557.04768555 234.26708984 557.58740234 C251.55465236 579.31793946 251.55465236 579.31793946 251 591.1875 C249.98705071 595.04936918 249.05656907 596.6822065 245.78125 598.96875 C237.30813717 603.87423638 228.80871083 604.38743093 219.3203125 602.12109375 C201.93226644 596.64440149 187.15282914 586.88168398 172 577 C159.26565193 568.55616829 159.26565193 568.55616829 146 561 C145.34128906 560.64550781 144.68257812 560.29101562 144.00390625 559.92578125 C134.86555112 555.13393422 126.45639822 552.63669745 116 554 C110.08102598 555.99548473 106.39653658 560.19858311 103.25390625 565.46484375 C91.34117999 589.55007535 101.31033333 623.87989069 106.20263672 648.68286133 C109.15444734 663.7288 111.24778031 678.38795008 111.375 693.75 C111.38893799 694.82121094 111.40287598 695.89242187 111.41723633 696.99609375 C111.36216569 706.1163633 109.99823256 714.80212093 104 722 C98.48870402 726.40903679 93.16852368 728.32203478 86.125 727.875 C71.6272791 725.92591063 60.67290713 715.12289792 52 704 C47.46147097 697.80717575 43.21642975 691.414541 39 685 C38.28328125 683.9171875 37.5665625 682.834375 36.828125 681.71875 C34.14101484 677.58107594 31.63784283 673.3942164 29.3125 669.04296875 C21.20302083 654.10912597 12.6062865 638.78391928 1.875 625.5625 C1.37991943 624.94995361 0.88483887 624.33740723 0.37475586 623.70629883 C-4.52817721 617.93029742 -9.88362592 613.34884526 -17.6875 612.6875 C-23.33904456 612.80135896 -27.47369082 614.84753927 -31.7421875 618.484375 C-45.76996253 633.09394715 -52.58812528 655.36300585 -59.91015625 673.80859375 C-60.25597244 674.67860016 -60.60178864 675.54860657 -60.95808411 676.44497681 C-62.68927892 680.80440672 -64.4108927 685.16720477 -66.11547852 689.53710938 C-70.22323504 699.99685515 -74.81887292 710.03094998 -80 720 C-81.00345186 721.99827035 -82.0046749 723.99766937 -83 726 C-83.66 726 -84.32 726 -85 726 C-85.24621094 726.74636719 -85.49242187 727.49273438 -85.74609375 728.26171875 C-87.88454998 732.9316808 -91.58324888 735.5301968 -96 738 C-100.8311693 739.259272 -103.96895197 738.56415836 -108.3125 736.1875 C-114.58030219 729.85024848 -115.30982706 720.87240848 -116.078125 712.4296875 C-116.16324341 711.51206635 -116.24836182 710.59444519 -116.33605957 709.64901733 C-117.12569313 700.55419307 -117.34697392 691.47549331 -117.46304321 682.35101318 C-116.86456117 640.42195929 -116.86456117 640.42195929 -132.375 602.5 C-138.93210782 596.25513541 -146.36163301 594.67628984 -155.19140625 594.78125 C-160.3093174 595.17986339 -165.10554838 596.50156495 -170 598 C-171.19882812 598.36544922 -171.19882812 598.36544922 -172.421875 598.73828125 C-189.82394373 604.89908075 -205.03015778 618.425563 -219 630 C-220.81169132 631.48015703 -222.62419578 632.95931934 -224.4375 634.4375 C-227.26880897 636.74746313 -230.08314337 639.07068319 -232.8671875 641.4375 C-261.17789118 665.46780551 -261.17789118 665.46780551 -275.78125 665.20703125 C-278.97522575 664.90900182 -280.62555204 664.16493785 -283 662 C-287.14044302 655.6513207 -286.35805442 649.24041375 -285 642 C-282.00223305 630.69228807 -276.94225412 619.97510927 -272.08398438 609.37402344 C-270.95567778 606.90293034 -269.84309772 604.42525041 -268.734375 601.9453125 C-267.96879275 600.23435587 -267.2031677 598.52341839 -266.4375 596.8125 C-266.05891846 595.9663916 -265.68033691 595.1202832 -265.2902832 594.24853516 C-263.61478441 590.52110232 -261.92486649 586.80794275 -260.12109375 583.140625 C-251.3154516 565.09595339 -243.29744372 544.33063994 -247.6484375 523.96484375 C-250.18057682 517.65613766 -254.55045851 513.56432695 -260.6875 510.78125 C-273.67711454 505.83954881 -286.53275806 506.3498884 -300.0859375 508.25390625 C-301.51496902 508.45153313 -301.51496902 508.45153313 -302.97286987 508.65315247 C-310.79478283 509.7654223 -318.55640526 511.13976706 -326.32444763 512.57487488 C-359.8276542 518.75789578 -359.8276542 518.75789578 -375.1875 518.8125 C-376.24018066 518.82369873 -377.29286133 518.83489746 -378.37744141 518.84643555 C-387.10380905 518.62108665 -396.33088679 516.18963368 -402.5625 509.75 C-407.23887586 503.376886 -409.11740496 495.808991 -408 488 C-405.22950644 476.2907442 -397.80220648 466.93641568 -389 459 C-388.43925781 458.49339844 -387.87851562 457.98679687 -387.30078125 457.46484375 C-383.31476323 454 -383.31476323 454 -381 454 C-381 453.34 -381 452.68 -381 452 C-378.94875462 450.46778186 -376.90078226 449.06904023 -374.75 447.6875 C-374.08540771 447.25308594 -373.42081543 446.81867188 -372.73608398 446.37109375 C-371.27577614 445.41796971 -369.81334206 444.46809769 -368.34912109 443.52099609 C-365.93172586 441.95579423 -363.52192338 440.3794151 -361.11328125 438.80078125 C-353.9767996 434.13288515 -346.83326004 429.49041703 -339.56079102 425.03662109 C-333.05739546 421.05274506 -326.91604417 416.8470014 -320.98266602 412.04614258 C-317.19173328 409 -317.19173328 409 -315 409 C-315 408.34 -315 407.68 -315 407 C-313.33333333 405.33333333 -311.66666667 403.66666667 -310 402 C-306.91984115 397.96392979 -306.38020184 395.04692784 -307 390 C-314.85843453 372.85432465 -346.0591216 365.22955978 -362.21948242 359.00537109 C-398.96222973 344.81135135 -398.96222973 344.81135135 -410 335 C-410 334.34 -410 333.68 -410 333 C-410.86625 332.690625 -410.86625 332.690625 -411.75 332.375 C-415.58590059 330.03083853 -417.47344265 327.00561335 -418.61328125 322.6640625 C-419.41377108 317.40832121 -419.15753704 313.42276477 -416.40625 308.8125 C-408.95534825 299.20911552 -396.62331611 297.16331208 -385.22241211 295.47314453 C-374.3949755 294.13976159 -363.39777452 293.92969084 -352.50878906 293.39819336 C-317.74785609 292.68244434 -317.74785609 292.68244434 -288 277 C-282.92366691 270.62204304 -281.40886718 264.52186994 -281.55859375 256.4765625 C-284.76095154 231.25445251 -305.90493521 209.4280568 -321.52539062 190.765625 C-324.75508229 186.89855048 -327.89879209 182.97048589 -331 179 C-331.69222656 178.12891602 -331.69222656 178.12891602 -332.3984375 177.24023438 C-350.35884304 154.56180352 -350.35884304 154.56180352 -349.44921875 142.08984375 C-348.73596869 138.77168043 -347.58042053 137.18343276 -345 135 C-334.98204877 129.49994835 -325.70306246 130.94198216 -315 134 C-297.65221633 139.83376796 -281.57691295 148.92192058 -265.94897461 158.30712891 C-241.04401045 173.71239996 -241.04401045 173.71239996 -213 178 C-208.71450274 176.12996483 -207.36990417 174.72659747 -205.25 170.5625 C-201.74232872 159.33308015 -201.67422807 147.64244853 -201.75 136 C-201.75177246 135.2027652 -201.75354492 134.4055304 -201.75537109 133.58413696 C-201.78617825 121.58874671 -202.25983562 109.65797806 -203 97.6875 C-203.76830791 85.18445369 -204.24121741 72.71120078 -204.29956055 60.18301392 C-204.30803713 58.46632594 -204.32152236 56.7496537 -204.34057617 55.03305054 C-204.59501205 29.62882457 -204.59501205 29.62882457 -198 20 C-194.53938179 17.40453634 -191.20058534 17.52574037 -187 18 C-168.15740359 24.52365523 -156.53482885 44.20386977 -146 60 C-145.27683594 61.07765625 -144.55367188 62.1553125 -143.80859375 63.265625 C-141.23603222 67.11188137 -138.67342955 70.96351647 -136.15234375 74.84375 C-128.90849399 85.91032951 -121.19494098 96.96918172 -112.109375 106.6171875 C-111 108 -111 108 -111 110 C-110.40832031 110.26941406 -109.81664062 110.53882813 -109.20703125 110.81640625 C-107.01291159 111.99307573 -105.49570784 113.24149599 -103.6875 114.9375 C-98.35957891 119.58526096 -92.11763914 122.20452986 -85 122 C-77.9735464 120.61355417 -72.71318056 116.56997442 -68.44140625 110.94921875 C-58.95850794 96.29383045 -55.47798448 78.2650955 -50.99365234 61.65478516 C-37.13904461 10.69569969 -37.13904461 10.69569969 -23 0 C-15.37321659 -4.29006567 -7.71787218 -4.22298667 0 0 Z M-125 197 C-126.0837793 197.3710083 -126.0837793 197.3710083 -127.18945312 197.74951172 C-147.24372359 204.73692485 -164.19373769 215.39659426 -180.4921875 228.921875 C-182.23648848 230.36730821 -184.01585074 231.77103352 -185.8203125 233.140625 C-186.53960937 233.75421875 -187.25890625 234.3678125 -188 235 C-188 235.66 -188 236.32 -188 237 C-189.32 237.66 -190.64 238.32 -192 239 C-192 239.66 -192 240.32 -192 241 C-192.99 241.33 -193.98 241.66 -195 242 C-227.71057251 276.44978495 -243.39305714 324.23970175 -242.34765625 371.203125 C-241.30080804 397.03288524 -235.2946381 420.84658573 -224 444 C-223.50757813 445.01449219 -223.01515625 446.02898437 -222.5078125 447.07421875 C-215.65200441 460.34040106 -206.00613486 472.00392745 -196 483 C-195.52868652 483.51804199 -195.05737305 484.03608398 -194.57177734 484.56982422 C-163.77698871 517.91388578 -117.14570289 538.9665532 -73 547 C-72.37196268 534.43925357 -75.93412934 520.18130578 -83.6875 510.0625 C-91.65560587 502.00350318 -103.71722284 499.81398931 -114.27929688 496.87231445 C-116.25645075 496.31797448 -118.22973057 495.75114615 -120.203125 495.18359375 C-121.36489258 494.85931396 -122.52666016 494.53503418 -123.72363281 494.20092773 C-128.60526137 492.41160353 -133.65619137 489.81782885 -136 485 C-136.80205377 479.17397055 -135.99778807 475.12122128 -133 470 C-133 469.34 -133 468.68 -133 468 C-132.34 468 -131.68 468 -131 468 C-131 467.34 -131 466.68 -131 466 C-130.29061279 465.71858154 -129.58122559 465.43716309 -128.8503418 465.1472168 C-123.80318808 463.11581848 -118.8087769 460.96541465 -113.8125 458.8125 C-112.72646484 458.35552734 -111.64042969 457.89855469 -110.52148438 457.42773438 C-99.21913472 452.53344362 -86.630152 445.57309022 -81 434 C-78.82585328 426.67574685 -79.45811261 419.55721 -82.51953125 412.60546875 C-85.36066925 407.60536573 -88.96801234 403.09425774 -93 399 C-93.66 399 -94.32 399 -95 399 C-95.23589844 398.4225 -95.47179687 397.845 -95.71484375 397.25 C-100.30891646 389.20688183 -111.5627624 383.37496368 -119.07250977 378.16210938 C-130.11309553 370.49727449 -130.11309553 370.49727449 -132.75 365.4375 C-133.15734375 364.67308594 -133.5646875 363.90867187 -133.984375 363.12109375 C-137.07852748 356.65907531 -137.00679199 349.01622459 -135.28125 342.1328125 C-133.30765106 336.89640886 -130.72098602 333.13442891 -127 329 C-127 328.34 -127 327.68 -127 327 C-126.14148438 326.60554688 -126.14148438 326.60554688 -125.265625 326.203125 C-122.86138601 324.92639119 -120.89922256 323.41827765 -118.75 321.75 C-95.81038559 305.69895785 -64.25923941 307.15710361 -37.91259766 311.45214844 C-26.44503355 313.60916552 -15.95866163 317.3255236 -6.15234375 323.6796875 C-4.1367057 325.17429617 -4.1367057 325.17429617 -2 325 C-2 325.66 -2 326.32 -2 327 C-0.8131637 328.0896512 0.42619706 329.12248565 1.6875 330.125 C9.67993211 336.97363882 13.05199058 345.24543285 14.5 355.5625 C13.07068097 365.38906836 6.35551782 371.02572276 -1.24511719 376.72949219 C-5.50520956 379.81373269 -9.91206164 382.6782482 -14.30859375 385.5625 C-27.45437143 393.65984375 -27.45437143 393.65984375 -36 406 C-37.05428091 412.89337519 -36.5625379 418.98053941 -33 425 C-25.22274403 434.33270717 -14.34679491 437.93330337 -2.6875 439.4375 C7.16001833 440.86539492 16.94826356 442.41938332 24 450 C26.66441826 454.79595287 27.73940444 458.54689226 27 464 C22.49087237 477.2877674 10.16830383 484.55446411 -1 492 C-1 492.66 -1 493.32 -1 494 C-1.556875 494.20625 -2.11375 494.4125 -2.6875 494.625 C-5.22812201 496.13564012 -6.76507497 497.93858175 -8.55859375 500.26953125 C-10 502 -10 502 -12.3515625 504.2890625 C-24.28222217 516.50127167 -35 534.51647794 -35 552 C-13.87879925 552.59955311 -13.87879925 552.59955311 7 550 C8.89105469 549.61521484 8.89105469 549.61521484 10.8203125 549.22265625 C32.6950739 544.47304163 51.68636989 533.12070559 68 518 C68.51546387 517.52304687 69.03092773 517.04609375 69.56201172 516.5546875 C77.25936509 509.34188409 83.88429552 501.58503664 90 493 C90.40959961 492.42942871 90.81919922 491.85885742 91.24121094 491.27099609 C120.91581446 449.53891316 137.04196025 393.6662329 128.82202148 342.55053711 C128.01801637 338.32864346 127.06760245 334.16250913 126 330 C125.81808105 329.25733887 125.63616211 328.51467773 125.44873047 327.74951172 C119.92677534 305.60740924 109.52687657 285.40673207 96.4375 266.8125 C96.02000488 266.21783936 95.60250977 265.62317871 95.17236328 265.01049805 C94.16925331 263.63241899 93.09140649 262.30926062 92 261 C91.34 261 90.68 261 90 261 C89.62875 260.1646875 89.62875 260.1646875 89.25 259.3125 C87.77075182 256.57589087 86.06532561 254.32349131 84 252 C83.34 252 82.68 252 82 252 C81.34 250.68 80.68 249.36 80 248 C79.34 248 78.68 248 78 248 C77.77441406 247.42894531 77.54882812 246.85789062 77.31640625 246.26953125 C75.62518364 243.35380325 73.57745702 241.7779301 70.9375 239.6875 C69.94105469 238.89601563 68.94460938 238.10453125 67.91796875 237.2890625 C66.95503906 236.53367187 65.99210937 235.77828125 65 235 C64.27425781 234.40960938 63.54851562 233.81921875 62.80078125 233.2109375 C51.11399199 223.81698499 38.60737013 216.24389812 25 210 C24.28924316 209.66758301 23.57848633 209.33516602 22.84619141 208.99267578 C9.3350499 202.73302295 -4.5937373 198.67070113 -19 195 C-20.87558594 194.50693359 -20.87558594 194.50693359 -22.7890625 194.00390625 C-55.94446063 186.06471042 -92.63720081 185.76917716 -125 197 Z " fill="#FCB62A" transform="translate(450,32)"></path>
<path d="M0 0 C0 0.66 0 1.32 0 2 C0.5775 2.24621094 1.155 2.49242187 1.75 2.74609375 C9.83333094 7.25086672 14.29950053 16.04825186 16.75 24.625 C16.8325 25.40875 16.915 26.1925 17 27 C17.12375 28.0725 17.2475 29.145 17.375 30.25 C16.52021141 38.79788587 11.32287362 44.27339683 5 49.68359375 C1.02963288 52.74925482 -3.09514694 55.52262751 -7.30322266 58.24951172 C-12.60745503 61.6873653 -17.62037114 65.40709178 -22.609375 69.28515625 C-25 71 -25 71 -28 72 C-29.06716704 73.79932579 -29.06716704 73.79932579 -30 76 C-30.50789063 76.75023437 -31.01578125 77.50046875 -31.5390625 78.2734375 C-34.24680025 83.32691597 -33.90859294 89.72673567 -32.390625 95.1953125 C-31.55853376 97.23618837 -31.55853376 97.23618837 -30 100 C-29.690625 100.763125 -29.38125 101.52625 -29.0625 102.3125 C-27.67864372 104.51038939 -26.34661152 104.90219392 -24 106 C-23.21625 106.4021875 -22.4325 106.804375 -21.625 107.21875 C-15.86412725 110.03060456 -10.70722993 111.58894972 -4.37890625 112.48828125 C19.00907511 116.03027612 19.00907511 116.03027612 26.38671875 124.61328125 C29.70034919 129.29887096 30.53878705 133.34273592 30 139 C25.97316716 151.42976463 14.52015974 159.13826519 4 166 C3.01 166.33 2.02 166.66 1 167 C1 167.66 1 168.32 1 169 C-0.4609375 170.40234375 -0.4609375 170.40234375 -2.375 171.9375 C-4.83901524 173.91986617 -6.20466437 175.30699655 -8 178 C-8.66 178 -9.32 178 -10 178 C-10.23203125 178.5259375 -10.4640625 179.051875 -10.703125 179.59375 C-12.0753093 182.13973051 -13.70235572 184.40035345 -15.42700195 186.71777344 C-24.56518184 199.02792534 -29.29088041 211.22916977 -33 226 C-39.95359476 226.281269 -46.77609427 225.83382764 -53.6875 225.125 C-54.48260986 225.04652832 -55.27771973 224.96805664 -56.09692383 224.88720703 C-61.21632357 224.33355737 -66.03065634 223.35166147 -71 222 C-71.20302734 220.22109375 -71.20302734 220.22109375 -71.41015625 218.40625 C-72.49130117 209.93478898 -73.90847806 201.99837494 -77.3125 194.125 C-77.58392822 193.47853516 -77.85535645 192.83207031 -78.13500977 192.16601562 C-81.55321112 184.77213802 -87.62811022 180.91786091 -95 178 C-100.67843176 176.15405481 -106.42085167 174.53772773 -112.16943359 172.92724609 C-114.15985892 172.36655616 -116.14632316 171.79320337 -118.1328125 171.21875 C-119.30730957 170.88810547 -120.48180664 170.55746094 -121.69189453 170.21679688 C-127.24804803 168.17311651 -132.00397259 165.18543205 -135 160 C-136.25151764 153.33375297 -134.3242024 148.71347287 -131 143 C-130.34 143 -129.68 143 -129 143 C-129 142.34 -129 141.68 -129 141 C-126.66942219 139.80681854 -124.33637526 138.61925403 -122 137.4375 C-120.92480103 136.89331421 -120.92480103 136.89331421 -119.82788086 136.33813477 C-115.4779473 134.16245621 -111.09755341 132.15681488 -106.60717773 130.28955078 C-95.53440705 125.67534545 -85.11187042 119.22374083 -79.5625 108.125 C-77.81294006 98.40522257 -79.18387476 90.63131755 -84.765625 82.39453125 C-88.98624247 76.90274355 -93.6396063 72.3541104 -99 68 C-99.77601563 67.33742188 -100.55203125 66.67484375 -101.3515625 65.9921875 C-105.53973242 62.46197781 -109.75477264 59.13182871 -114.2734375 56.0390625 C-115.02246338 55.52496826 -115.77148926 55.01087402 -116.54321289 54.48120117 C-118.01584458 53.47943138 -119.49644711 52.48924308 -120.98608398 51.51293945 C-127.78558902 46.89624582 -133.15313621 41.23300727 -135 33 C-135.92040432 24.56652787 -135.07273339 17.46238176 -131 10 C-130.63390625 9.32582031 -130.2678125 8.65164063 -129.890625 7.95703125 C-121.91287508 -4.3789339 -106.4940856 -11.40601325 -92.63085938 -14.53466797 C-61.46792528 -20.77839325 -27.0303269 -17.37348907 0 0 Z " fill="#342D34" transform="translate(448,357)"></path>
</svg></svg></g></g></svg></g><g id="dark-icon"><svg xmlns="http://www.w3.org/2000/svg" version="1.1" xmlns:xlink="http://www.w3.org/1999/xlink" width="1000" height="1000"><g><g transform="matrix(1.25,0,0,1.25,0,0)"><svg xmlns="http://www.w3.org/2000/svg" version="1.1" xmlns:xlink="http://www.w3.org/1999/xlink" width="800" height="800"><svg width="800" height="800" viewBox="0 0 800 800" fill="none" xmlns="http://www.w3.org/2000/svg">
<path d="M450 31.9991C469.759 49.4603 472.63 82.154 477.247 106.515C482.28 133.695 482.28 133.695 492.934 159.023C494 160.999 494 160.999 494 162.999C494.66 162.999 495.32 162.999 496 162.999C497.667 164.666 499.334 166.332 501 167.999C509.91 170.969 518.463 168.204 526.594 164.253C541.199 156.589 553.822 146.058 566.266 135.339C573.675 128.999 573.675 128.999 576 128.999C576 128.339 576 127.679 576 126.999C577.766 125.405 577.766 125.405 580.25 123.499C584.162 120.456 587.978 117.339 591.75 114.124C596.162 110.441 600.658 106.933 605.313 103.562C605.875 103.149 606.438 102.736 607.017 102.31C613.479 97.7062 619.028 95.2149 627 95.9991C629.565 97.3142 630.68 98.037 631.594 100.78C635.426 121.706 620.562 146.096 612.3 164.757C593.304 204.22 593.304 204.22 593 245.999C595.825 251.874 600.13 254.574 606 256.999C613.159 259.296 620.139 259.502 627.625 259.562C628.294 259.567 628.963 259.573 629.652 259.579C648.078 259.631 666.13 256.306 684.245 253.265C695.217 251.436 706.286 249.597 717.438 249.687C718.192 249.691 718.945 249.696 719.722 249.701C726.863 249.852 732.213 250.909 738 255.249C740.479 258.657 740.927 260.801 741 264.999C738.549 277.531 727.07 286.546 717.313 293.624C716.082 294.525 716.082 294.525 714.825 295.444C707.32 300.877 699.58 305.912 691.786 310.917C660.696 329.629 660.696 329.629 642 358.999C641.478 365.018 643.225 370.263 647 374.999C663.784 393.065 691.859 400.453 714.312 409.199C759.856 426.959 759.856 426.959 767.153 439.921C768.658 443.61 768.578 446.023 768 449.999C762.827 460.347 752.88 464.653 742.45 468.21C724.565 473.767 705.617 476.283 687.161 479.28C660.505 483.259 660.505 483.259 635.961 493.8C634 494.999 634 494.999 631 495.999C631 496.659 631 497.319 631 497.999C630.34 497.999 629.68 497.999 629 497.999C625.857 504.496 625.21 510.523 627.5 517.374C633.817 532.813 645.842 545.859 657 557.999C658.151 559.308 659.297 560.62 660.438 561.937C663.198 565.111 666.028 568.214 668.875 571.312C673.795 576.714 678.456 582.278 683 587.999C683.419 588.523 683.837 589.047 684.268 589.586C701.555 611.317 701.555 611.317 701 623.187C699.988 627.048 699.057 628.681 695.782 630.968C687.309 635.873 678.809 636.387 669.321 634.12C651.933 628.643 637.153 618.881 622 608.999C609.266 600.555 609.266 600.555 596 592.999C595.342 592.645 594.683 592.29 594.004 591.925C584.866 587.133 576.457 584.636 566 585.999C560.082 587.995 556.397 592.198 553.254 597.464C541.342 621.549 551.311 655.879 556.203 680.682C559.155 695.728 561.248 710.387 561.375 725.749C561.389 726.82 561.403 727.892 561.418 728.995C561.363 738.115 559.999 746.801 554 753.999C548.489 758.408 543.169 760.321 536.125 759.874C521.628 757.925 510.673 747.122 502 735.999C497.462 729.806 493.217 723.414 489 716.999C488.284 715.916 487.567 714.833 486.829 713.718C484.142 709.58 481.638 705.393 479.313 701.042C471.204 686.108 462.607 670.783 451.875 657.562C451.38 656.949 450.885 656.336 450.375 655.705C445.472 649.929 440.117 645.348 432.313 644.687C426.661 644.8 422.527 646.847 418.258 650.483C404.231 665.093 397.412 687.362 390.09 705.808C389.745 706.678 389.399 707.548 389.042 708.444C387.311 712.804 385.59 717.166 383.885 721.536C379.777 731.996 375.182 742.03 370 751.999C368.997 753.997 367.996 755.997 367 757.999C366.34 757.999 365.68 757.999 365 757.999C364.754 758.745 364.508 759.492 364.254 760.261C362.116 764.931 358.417 767.529 354 769.999C349.169 771.258 346.032 770.563 341.688 768.187C335.42 761.849 334.691 752.871 333.922 744.429C333.837 743.511 333.752 742.593 333.664 741.648C332.875 732.553 332.654 723.475 332.537 714.35C333.136 672.421 333.136 672.421 317.625 634.499C311.068 628.254 303.639 626.675 294.809 626.78C289.691 627.179 284.895 628.501 280 629.999C278.802 630.365 278.802 630.365 277.579 630.737C260.177 636.898 244.97 650.425 231 661.999C229.189 663.479 227.376 664.958 225.563 666.437C222.732 668.747 219.917 671.07 217.133 673.437C188.823 697.467 188.823 697.467 174.219 697.206C171.025 696.908 169.375 696.164 167 693.999C162.86 687.65 163.642 681.239 165 673.999C167.998 662.691 173.058 651.974 177.917 641.373C179.045 638.902 180.157 636.424 181.266 633.944C182.032 632.233 182.797 630.523 183.563 628.812C183.942 627.965 184.32 627.119 184.71 626.248C186.386 622.52 188.076 618.807 189.879 615.14C198.685 597.095 206.703 576.33 202.352 555.964C199.82 549.655 195.45 545.563 189.313 542.78C176.323 537.839 163.468 538.349 149.915 540.253C148.486 540.451 148.486 540.451 147.028 540.652C139.206 541.765 131.444 543.139 123.676 544.574C90.1729 550.757 90.1728 550.757 74.813 550.812C73.7603 550.823 72.7076 550.834 71.6231 550.846C62.8967 550.62 53.6696 548.189 47.438 541.749C42.7616 535.376 40.8831 527.808 42.0005 519.999C44.771 508.29 52.1983 498.936 61.0005 490.999C61.5612 490.492 62.122 489.986 62.6997 489.464C66.6857 485.999 66.6857 485.999 69.0005 485.999C69.0005 485.339 69.0005 484.679 69.0005 483.999C71.0517 482.467 73.0997 481.068 75.2505 479.687C75.9151 479.252 76.5797 478.818 77.2644 478.37C78.7247 477.417 80.1872 476.467 81.6514 475.52C84.0688 473.955 86.4786 472.378 88.8872 470.8C96.0237 466.132 103.167 461.49 110.44 457.036C116.943 453.052 123.084 448.846 129.018 444.045C132.809 440.999 132.809 440.999 135 440.999C135 440.339 135 439.679 135 438.999C136.667 437.332 138.334 435.666 140 433.999C143.081 429.963 143.62 427.046 143 421.999C135.142 404.853 103.941 397.229 87.781 391.004C51.0383 376.81 51.0383 376.81 40.0005 366.999C40.0005 366.339 40.0005 365.679 40.0005 364.999C39.1342 364.69 39.1342 364.69 38.2505 364.374C34.4146 362.03 32.5271 359.005 31.3872 354.663C30.5867 349.407 30.843 345.422 33.5942 340.812C41.0451 331.208 53.3772 329.162 64.7781 327.472C75.6055 326.139 86.6027 325.929 97.4917 325.397C132.253 324.682 132.253 324.682 162 308.999C167.077 302.621 168.592 296.521 168.442 288.476C165.24 263.254 144.096 241.427 128.475 222.765C125.245 218.898 122.102 214.97 119 210.999C118.308 210.128 118.308 210.128 117.602 209.239C99.6417 186.561 99.6417 186.561 100.551 174.089C101.265 170.771 102.42 169.183 105 166.999C115.018 161.499 124.297 162.941 135 165.999C152.348 171.833 168.424 180.921 184.052 190.306C208.956 205.711 208.956 205.711 237 209.999C241.286 208.129 242.631 206.726 244.75 202.562C248.258 191.332 248.326 179.642 248.25 167.999C248.249 167.202 248.247 166.405 248.245 165.583C248.214 153.588 247.741 141.657 247 129.687C246.232 117.184 245.759 104.71 245.701 92.1821C245.692 90.4654 245.679 88.7487 245.66 87.0321C245.405 61.6279 245.405 61.6279 252 51.9991C255.461 49.4036 258.8 49.5248 263 49.9991C281.843 56.5227 293.466 76.203 304 91.9991C304.724 93.0767 305.447 94.1544 306.192 95.2647C308.764 99.111 311.327 102.963 313.848 106.843C321.092 117.909 328.806 128.968 337.891 138.616C339 139.999 339 139.999 339 141.999C339.592 142.268 340.184 142.538 340.793 142.815C342.988 143.992 344.505 145.241 346.313 146.937C351.641 151.584 357.883 154.204 365 153.999C372.027 152.613 377.287 148.569 381.559 142.948C391.042 128.293 394.523 110.264 399.007 93.6539C412.861 42.6948 412.861 42.6948 427 31.9991C434.627 27.709 442.283 27.7761 450 31.9991ZM325 228.999C323.917 229.37 323.917 229.37 322.811 229.749C302.757 236.736 285.807 247.396 269.508 260.921C267.764 262.366 265.985 263.77 264.18 265.14C263.461 265.753 262.742 266.367 262 266.999C262 267.659 262 268.319 262 268.999C260.68 269.659 259.36 270.319 258 270.999C258 271.659 258 272.319 258 272.999C257.01 273.329 256.02 273.659 255 273.999C222.29 308.449 206.607 356.239 207.653 403.202C208.7 429.032 214.706 452.846 226 475.999C226.493 477.014 226.985 478.028 227.493 479.073C234.348 492.339 243.994 504.003 254 514.999C254.472 515.517 254.943 516.035 255.429 516.569C286.223 549.913 332.855 570.966 377 578.999C377.629 566.438 374.066 552.18 366.313 542.062C358.345 534.003 346.283 531.813 335.721 528.871C333.744 528.317 331.771 527.75 329.797 527.183C328.636 526.858 327.474 526.534 326.277 526.2C321.395 524.411 316.344 521.817 314 516.999C313.198 511.173 314.003 507.12 317 501.999C317 501.339 317 500.679 317 499.999C317.66 499.999 318.32 499.999 319 499.999C319 499.339 319 498.679 319 497.999C319.71 497.718 320.419 497.436 321.15 497.146C326.197 495.115 331.192 492.964 336.188 490.812C337.274 490.355 338.36 489.898 339.479 489.427C350.781 484.533 363.37 477.572 369 465.999C371.175 458.675 370.542 451.556 367.481 444.605C364.64 439.604 361.032 435.093 357 430.999C356.34 430.999 355.68 430.999 355 430.999C354.765 430.422 354.529 429.844 354.286 429.249C349.692 421.206 338.438 415.374 330.928 410.161C319.887 402.496 319.887 402.496 317.25 397.437C316.843 396.672 316.436 395.908 316.016 395.12C312.922 388.658 312.994 381.015 314.719 374.132C316.693 368.895 319.28 365.134 323 360.999C323 360.339 323 359.679 323 358.999C323.859 358.605 323.859 358.605 324.735 358.202C327.139 356.925 329.101 355.417 331.25 353.749C354.19 337.698 385.741 339.156 412.088 343.451C423.555 345.608 434.042 349.325 443.848 355.679C445.864 357.173 445.864 357.173 448 356.999C448 357.659 448 358.319 448 358.999C449.187 360.089 450.427 361.122 451.688 362.124C459.68 368.973 463.052 377.245 464.5 387.562C463.071 397.388 456.356 403.025 448.755 408.729C444.495 411.813 440.088 414.677 435.692 417.562C422.546 425.659 422.546 425.659 414 437.999C412.946 444.892 413.438 450.98 417 456.999C424.778 466.332 435.654 469.932 447.313 471.437C457.161 472.864 466.949 474.418 474 481.999C476.665 486.795 477.74 490.546 477 495.999C472.491 509.287 460.169 516.554 449 523.999C449 524.659 449 525.319 449 525.999C448.444 526.205 447.887 526.412 447.313 526.624C444.772 528.135 443.235 529.938 441.442 532.269C440 533.999 440 533.999 437.649 536.288C425.718 548.5 415 566.516 415 583.999C436.122 584.599 436.122 584.599 457 581.999C458.892 581.614 458.892 581.614 460.821 581.222C482.696 576.472 501.687 565.12 518 549.999C518.516 549.522 519.031 549.045 519.562 548.554C527.26 541.341 533.885 533.584 540 524.999C540.41 524.429 540.82 523.858 541.242 523.27C570.916 481.538 587.042 425.665 578.823 374.55C578.019 370.328 577.068 366.162 576 361.999C575.819 361.256 575.637 360.514 575.449 359.749C569.927 337.606 559.527 317.406 546.438 298.812C546.02 298.217 545.603 297.622 545.173 297.01C544.17 295.632 543.092 294.308 542 292.999C541.34 292.999 540.68 292.999 540 292.999C539.629 292.164 539.629 292.164 539.25 291.312C537.771 288.575 536.066 286.323 534 283.999C533.34 283.999 532.68 283.999 532 283.999C531.34 282.679 530.68 281.359 530 279.999C529.34 279.999 528.68 279.999 528 279.999C527.775 279.428 527.549 278.857 527.317 278.269C525.626 275.353 523.578 273.777 520.938 271.687C519.942 270.895 518.945 270.104 517.918 269.288C516.956 268.533 515.993 267.777 515 266.999C514.275 266.409 513.549 265.818 512.801 265.21C501.114 255.816 488.608 248.243 475 241.999C474.29 241.667 473.579 241.334 472.847 240.992C459.336 234.732 445.407 230.67 431 226.999C429.125 226.506 429.125 226.506 427.211 226.003C394.056 218.064 357.363 217.768 325 228.999Z" fill="#FCB62A"></path>
<path d="M450 31.9991C469.759 49.4603 472.63 82.154 477.247 106.515C482.28 133.695 482.28 133.695 492.934 159.023C494 160.999 494 160.999 494 162.999C494.66 162.999 495.32 162.999 496 162.999C497.667 164.666 499.334 166.332 501 167.999C509.91 170.969 518.463 168.204 526.594 164.253C541.199 156.589 553.822 146.058 566.266 135.339C573.675 128.999 573.675 128.999 576 128.999C576 128.339 576 127.679 576 126.999C577.766 125.405 577.766 125.405 580.25 123.499C584.162 120.456 587.978 117.339 591.75 114.124C596.162 110.441 600.658 106.933 605.313 103.562C605.875 103.149 606.438 102.736 607.017 102.31C613.479 97.7062 619.028 95.2149 627 95.9991C629.565 97.3142 630.68 98.037 631.594 100.78C635.426 121.706 620.562 146.096 612.3 164.757C593.304 204.22 593.304 204.22 593 245.999C595.825 251.874 600.13 254.574 606 256.999C613.159 259.296 620.139 259.502 627.625 259.562C628.294 259.567 628.963 259.573 629.652 259.579C648.078 259.631 666.13 256.306 684.245 253.265C695.217 251.436 706.286 249.597 717.438 249.687C718.192 249.691 718.945 249.696 719.722 249.701C726.863 249.852 732.213 250.909 738 255.249C740.479 258.657 740.927 260.801 741 264.999C738.549 277.531 727.07 286.546 717.313 293.624C716.082 294.525 716.082 294.525 714.825 295.444C707.32 300.877 699.58 305.912 691.786 310.917C660.696 329.629 660.696 329.629 642 358.999C641.478 365.018 643.225 370.263 647 374.999C663.784 393.065 691.859 400.453 714.312 409.199C759.856 426.959 759.856 426.959 767.153 439.921C768.658 443.61 768.578 446.023 768 449.999C762.827 460.347 752.88 464.653 742.45 468.21C724.565 473.767 705.617 476.283 687.161 479.28C660.505 483.259 660.505 483.259 635.961 493.8C634 494.999 634 494.999 631 495.999C631 496.659 631 497.319 631 497.999C630.34 497.999 629.68 497.999 629 497.999C625.857 504.496 625.21 510.523 627.5 517.374C633.817 532.813 645.842 545.859 657 557.999C658.151 559.308 659.297 560.62 660.438 561.937C663.198 565.111 666.028 568.214 668.875 571.312C673.795 576.714 678.456 582.278 683 587.999C683.419 588.523 683.837 589.047 684.268 589.586C701.555 611.317 701.555 611.317 701 623.187C699.988 627.048 699.057 628.681 695.782 630.968C687.309 635.873 678.809 636.387 669.321 634.12C651.933 628.643 637.153 618.881 622 608.999C609.266 600.555 609.266 600.555 596 592.999C595.342 592.645 594.683 592.29 594.004 591.925C584.866 587.133 576.457 584.636 566 585.999C560.082 587.995 556.397 592.198 553.254 597.464C541.342 621.549 551.311 655.879 556.203 680.682C559.155 695.728 561.248 710.387 561.375 725.749C561.389 726.82 561.403 727.892 561.418 728.995C561.363 738.115 559.999 746.801 554 753.999C548.489 758.408 543.169 760.321 536.125 759.874C521.628 757.925 510.673 747.122 502 735.999C497.462 729.806 493.217 723.414 489 716.999C488.284 715.916 487.567 714.833 486.829 713.718C484.142 709.58 481.638 705.393 479.313 701.042C471.204 686.108 462.607 670.783 451.875 657.562C451.38 656.949 450.885 656.336 450.375 655.705C445.472 649.929 440.117 645.348 432.313 644.687C426.661 644.8 422.527 646.847 418.258 650.483C404.231 665.093 397.412 687.362 390.09 705.808C389.745 706.678 389.399 707.548 389.042 708.444C387.311 712.804 385.59 717.166 383.885 721.536C379.777 731.996 375.182 742.03 370 751.999C368.997 753.997 367.996 755.997 367 757.999C366.34 757.999 365.68 757.999 365 757.999C364.754 758.745 364.508 759.492 364.254 760.261C362.116 764.931 358.417 767.529 354 769.999C349.169 771.258 346.032 770.563 341.688 768.187C335.42 761.849 334.691 752.871 333.922 744.429C333.837 743.511 333.752 742.593 333.664 741.648C332.875 732.553 332.654 723.475 332.537 714.35C333.136 672.421 333.136 672.421 317.625 634.499C311.068 628.254 303.639 626.675 294.809 626.78C289.691 627.179 284.895 628.501 280 629.999C278.802 630.365 278.802 630.365 277.579 630.737C260.177 636.898 244.97 650.425 231 661.999C229.189 663.479 227.376 664.958 225.563 666.437C222.732 668.747 219.917 671.07 217.133 673.437C188.823 697.467 188.823 697.467 174.219 697.206C171.025 696.908 169.375 696.164 167 693.999C162.86 687.65 163.642 681.239 165 673.999C167.998 662.691 173.058 651.974 177.917 641.373C179.045 638.902 180.157 636.424 181.266 633.944C182.032 632.233 182.797 630.523 183.563 628.812C183.942 627.965 184.32 627.119 184.71 626.248C186.386 622.52 188.076 618.807 189.879 615.14C198.685 597.095 206.703 576.33 202.352 555.964C199.82 549.655 195.45 545.563 189.313 542.78C176.323 537.839 163.468 538.349 149.915 540.253C148.486 540.451 148.486 540.451 147.028 540.652C139.206 541.765 131.444 543.139 123.676 544.574C90.1729 550.757 90.1728 550.757 74.813 550.812C73.7603 550.823 72.7076 550.834 71.6231 550.846C62.8967 550.62 53.6696 548.189 47.438 541.749C42.7616 535.376 40.8831 527.808 42.0005 519.999C44.771 508.29 52.1983 498.936 61.0005 490.999C61.5612 490.492 62.122 489.986 62.6997 489.464C66.6857 485.999 66.6857 485.999 69.0005 485.999C69.0005 485.339 69.0005 484.679 69.0005 483.999C71.0517 482.467 73.0997 481.068 75.2505 479.687C75.9151 479.252 76.5797 478.818 77.2644 478.37C78.7247 477.417 80.1872 476.467 81.6514 475.52C84.0688 473.955 86.4786 472.378 88.8872 470.8C96.0237 466.132 103.167 461.49 110.44 457.036C116.943 453.052 123.084 448.846 129.018 444.045C132.809 440.999 132.809 440.999 135 440.999C135 440.339 135 439.679 135 438.999C136.667 437.332 138.334 435.666 140 433.999C143.081 429.963 143.62 427.046 143 421.999C135.142 404.853 103.941 397.229 87.781 391.004C51.0383 376.81 51.0383 376.81 40.0005 366.999C40.0005 366.339 40.0005 365.679 40.0005 364.999C39.1342 364.69 39.1342 364.69 38.2505 364.374C34.4146 362.03 32.5271 359.005 31.3872 354.663C30.5867 349.407 30.843 345.422 33.5942 340.812C41.0451 331.208 53.3772 329.162 64.7781 327.472C75.6055 326.139 86.6027 325.929 97.4917 325.397C132.253 324.682 132.253 324.682 162 308.999C167.077 302.621 168.592 296.521 168.442 288.476C165.24 263.254 144.096 241.427 128.475 222.765C125.245 218.898 122.102 214.97 119 210.999C118.308 210.128 118.308 210.128 117.602 209.239C99.6417 186.561 99.6417 186.561 100.551 174.089C101.265 170.771 102.42 169.183 105 166.999C115.018 161.499 124.297 162.941 135 165.999C152.348 171.833 168.424 180.921 184.052 190.306C208.956 205.711 208.956 205.711 237 209.999C241.286 208.129 242.631 206.726 244.75 202.562C248.258 191.332 248.326 179.642 248.25 167.999C248.249 167.202 248.247 166.405 248.245 165.583C248.214 153.588 247.741 141.657 247 129.687C246.232 117.184 245.759 104.71 245.701 92.1821C245.692 90.4654 245.679 88.7487 245.66 87.0321C245.405 61.6279 245.405 61.6279 252 51.9991C255.461 49.4036 258.8 49.5248 263 49.9991C281.843 56.5227 293.466 76.203 304 91.9991C304.724 93.0767 305.447 94.1544 306.192 95.2647C308.764 99.111 311.327 102.963 313.848 106.843C321.092 117.909 328.806 128.968 337.891 138.616C339 139.999 339 139.999 339 141.999C339.592 142.268 340.184 142.538 340.793 142.815C342.988 143.992 344.505 145.241 346.313 146.937C351.641 151.584 357.883 154.204 365 153.999C372.027 152.613 377.287 148.569 381.559 142.948C391.042 128.293 394.523 110.264 399.007 93.6539C412.861 42.6948 412.861 42.6948 427 31.9991C434.627 27.709 442.283 27.7761 450 31.9991ZM325 228.999C323.917 229.37 323.917 229.37 322.811 229.749C302.757 236.736 285.807 247.396 269.508 260.921C267.764 262.366 265.985 263.77 264.18 265.14C263.461 265.753 262.742 266.367 262 266.999C262 267.659 262 268.319 262 268.999C260.68 269.659 259.36 270.319 258 270.999C258 271.659 258 272.319 258 272.999C257.01 273.329 256.02 273.659 255 273.999C222.29 308.449 206.607 356.239 207.653 403.202C208.7 429.032 214.706 452.846 226 475.999C226.493 477.014 226.985 478.028 227.493 479.073C234.348 492.339 243.994 504.003 254 514.999C254.472 515.517 254.943 516.035 255.429 516.569C286.223 549.913 332.855 570.966 377 578.999C377.629 566.438 374.066 552.18 366.313 542.062C358.345 534.003 346.283 531.813 335.721 528.871C333.744 528.317 331.771 527.75 329.797 527.183C328.636 526.858 327.474 526.534 326.277 526.2C321.395 524.411 316.344 521.817 314 516.999C313.198 511.173 314.003 507.12 317 501.999C317 501.339 317 500.679 317 499.999C317.66 499.999 318.32 499.999 319 499.999C319 499.339 319 498.679 319 497.999C319.71 497.718 320.419 497.436 321.15 497.146C326.197 495.115 331.192 492.964 336.188 490.812C337.274 490.355 338.36 489.898 339.479 489.427C350.781 484.533 363.37 477.572 369 465.999C371.175 458.675 370.542 451.556 367.481 444.605C364.64 439.604 361.032 435.093 357 430.999C356.34 430.999 355.68 430.999 355 430.999C354.765 430.422 354.529 429.844 354.286 429.249C349.692 421.206 338.438 415.374 330.928 410.161C319.887 402.496 319.887 402.496 317.25 397.437C316.843 396.672 316.436 395.908 316.016 395.12C312.922 388.658 312.994 381.015 314.719 374.132C316.693 368.895 319.28 365.134 323 360.999C323 360.339 323 359.679 323 358.999C323.859 358.605 323.859 358.605 324.735 358.202C327.139 356.925 329.101 355.417 331.25 353.749C354.19 337.698 385.741 339.156 412.088 343.451C423.555 345.608 434.042 349.325 443.848 355.679C445.864 357.173 445.864 357.173 448 356.999C448 357.659 448 358.319 448 358.999C449.187 360.089 450.427 361.122 451.688 362.124C459.68 368.973 463.052 377.245 464.5 387.562C463.071 397.388 456.356 403.025 448.755 408.729C444.495 411.813 440.088 414.677 435.692 417.562C422.546 425.659 422.546 425.659 414 437.999C412.946 444.892 413.438 450.98 417 456.999C424.778 466.332 435.654 469.932 447.313 471.437C457.161 472.864 466.949 474.418 474 481.999C476.665 486.795 477.74 490.546 477 495.999C472.491 509.287 460.169 516.554 449 523.999C449 524.659 449 525.319 449 525.999C448.444 526.205 447.887 526.412 447.313 526.624C444.772 528.135 443.235 529.938 441.442 532.269C440 533.999 440 533.999 437.649 536.288C425.718 548.5 415 566.516 415 583.999C436.122 584.599 436.122 584.599 457 581.999C458.892 581.614 458.892 581.614 460.821 581.222C482.696 576.472 501.687 565.12 518 549.999C518.516 549.522 519.031 549.045 519.562 548.554C527.26 541.341 533.885 533.584 540 524.999C540.41 524.429 540.82 523.858 541.242 523.27C570.916 481.538 587.042 425.665 578.823 374.55C578.019 370.328 577.068 366.162 576 361.999C575.819 361.256 575.637 360.514 575.449 359.749C569.927 337.606 559.527 317.406 546.438 298.812C546.02 298.217 545.603 297.622 545.173 297.01C544.17 295.632 543.092 294.308 542 292.999C541.34 292.999 540.68 292.999 540 292.999C539.629 292.164 539.629 292.164 539.25 291.312C537.771 288.575 536.066 286.323 534 283.999C533.34 283.999 532.68 283.999 532 283.999C531.34 282.679 530.68 281.359 530 279.999C529.34 279.999 528.68 279.999 528 279.999C527.775 279.428 527.549 278.857 527.317 278.269C525.626 275.353 523.578 273.777 520.938 271.687C519.942 270.895 518.945 270.104 517.918 269.288C516.956 268.533 515.993 267.777 515 266.999C514.275 266.409 513.549 265.818 512.801 265.21C501.114 255.816 488.608 248.243 475 241.999C474.29 241.667 473.579 241.334 472.847 240.992C459.336 234.732 445.407 230.67 431 226.999C429.125 226.506 429.125 226.506 427.211 226.003C394.056 218.064 357.363 217.768 325 228.999Z" fill="#FCB62A"></path>
<path d="M448 357.001C448 357.661 448 358.321 448 359.001C448.577 359.247 449.155 359.493 449.75 359.747C457.833 364.252 462.299 373.049 464.75 381.626C464.832 382.41 464.915 383.193 465 384.001C465.123 385.073 465.247 386.146 465.375 387.251C464.52 395.799 459.323 401.274 453 406.685C449.029 409.75 444.904 412.524 440.696 415.25C435.392 418.688 430.379 422.408 425.39 426.286C423 428.001 423 428.001 420 429.001C418.932 430.8 418.932 430.8 418 433.001C417.492 433.751 416.984 434.501 416.461 435.274C413.753 440.328 414.091 446.728 415.609 452.196C416.441 454.237 416.441 454.237 418 457.001C418.309 457.764 418.618 458.527 418.937 459.313C420.321 461.511 421.653 461.903 424 463.001C424.783 463.403 425.567 463.805 426.375 464.22C432.136 467.032 437.292 468.59 443.621 469.489C467.009 473.031 467.009 473.031 474.386 481.614C477.7 486.3 478.538 490.344 478 496.001C473.973 508.431 462.52 516.139 452 523.001C451.01 523.331 450.02 523.661 449 524.001C449 524.661 449 525.321 449 526.001C447.539 527.403 447.539 527.403 445.625 528.938C443.161 530.921 441.795 532.308 440 535.001C439.34 535.001 438.68 535.001 438 535.001C437.768 535.527 437.536 536.053 437.297 536.595C435.924 539.141 434.297 541.401 432.573 543.719C423.434 556.029 418.709 568.23 415 583.001C408.046 583.282 401.224 582.835 394.312 582.126C393.517 582.047 392.722 581.969 391.903 581.888C386.783 581.334 381.969 580.353 377 579.001C376.797 577.222 376.797 577.222 376.589 575.407C375.508 566.936 374.091 558.999 370.687 551.126C370.416 550.479 370.144 549.833 369.865 549.167C366.446 541.773 360.372 537.919 353 535.001C347.321 533.155 341.579 531.539 335.83 529.928C333.84 529.367 331.853 528.794 329.867 528.22C328.692 527.889 327.518 527.558 326.308 527.218C320.752 525.174 315.996 522.186 313 517.001C311.748 510.335 313.675 505.714 317 500.001C317.66 500.001 318.32 500.001 319 500.001C319 499.341 319 498.681 319 498.001C321.33 496.808 323.663 495.62 326 494.438C327.075 493.894 327.075 493.894 328.172 493.339C332.522 491.163 336.902 489.158 341.392 487.29C352.465 482.676 362.888 476.225 368.437 465.126C370.187 455.406 368.816 447.632 363.234 439.395C359.013 433.904 354.36 429.355 349 425.001C348.224 424.338 347.448 423.676 346.648 422.993C342.46 419.463 338.245 416.133 333.726 413.04C332.977 412.526 332.228 412.012 331.456 411.482C329.984 410.48 328.503 409.49 327.014 408.514C320.214 403.897 314.847 398.234 313 390.001C312.079 381.567 312.927 374.463 317 367.001C317.366 366.327 317.732 365.653 318.109 364.958C326.087 352.622 341.506 345.595 355.369 342.466C386.532 336.223 420.969 339.627 448 357.001Z" fill="white"></path>
</svg></svg></g></g></svg></g></svg>