<svg width="1430" height="827" viewBox="0 0 1430 827" fill="none" xmlns="http://www.w3.org/2000/svg">
<g clip-path="url(#clip0_4656_25)">
<path d="M1547.36 457.695C1454.85 695.904 1176.15 494.644 1176.15 494.644L1022.79 661.268C1022.79 661.268 852.328 583.683 750.987 619.26C539.789 693.403 680.084 964.182 680.084 964.182" stroke="url(#paint0_linear_4656_25)" stroke-width="47.619" stroke-linecap="round" stroke-linejoin="round"/>
<path d="M829.609 853.526C765.967 831.785 625.394 749.497 723.512 658.199L675.386 658.251L631.643 727.482L635.95 863.709L829.609 853.526Z" fill="#FDA21C"/>
<path d="M-99.0001 853.377C-35.3575 831.635 19.6969 722.99 -26.7184 671.215C-26.7184 671.215 70.2785 689.481 88.8637 720.394C116.289 766.011 90.3334 845.664 130.842 852.848C171.35 860.031 -99.0001 853.377 -99.0001 853.377Z" fill="#FDA21C"/>
<path d="M1547.4 2.80692C1483.75 24.5487 1428.7 133.193 1475.12 184.969C1475.12 184.969 1378.12 166.702 1359.53 135.79C1332.11 90.1727 1358.06 10.5192 1317.56 3.33591C1277.05 -3.84734 1547.4 2.80692 1547.4 2.80692Z" fill="#FD860A"/>
</g>
<defs>
<linearGradient id="paint0_linear_4656_25" x1="1518.52" y1="73.6896" x2="641.858" y2="856.649" gradientUnits="userSpaceOnUse">
<stop offset="0.162611" stop-color="#FD880B"/>
<stop offset="1" stop-color="#FDA21D"/>
</linearGradient>
<clipPath id="clip0_4656_25">
<rect width="1430" height="827" fill="white"/>
</clipPath>
</defs>
</svg>
