<svg width="327" height="138" viewBox="0 0 327 138" fill="none" xmlns="http://www.w3.org/2000/svg">
<path d="M285.413 55.3203H295.045V137.895H285.413V55.3203Z" fill="white"/>
<path d="M233.806 55.3203H255.115C256.64 55.3203 258.125 55.4746 259.57 55.7832C261.041 56.0533 262.419 56.5548 263.703 57.2877C265.014 58.0207 266.205 59.0237 267.275 60.2968C268.345 61.5312 269.268 63.1322 270.044 65.0996C270.847 67.0671 271.462 69.4203 271.89 72.1592C272.318 74.8982 272.532 78.1194 272.532 81.8228C272.532 84.2918 272.385 86.5099 272.091 88.4774C271.823 90.4062 271.449 92.1229 270.967 93.6274C270.512 95.1319 269.977 96.4436 269.362 97.5623C268.773 98.681 268.171 99.6455 267.556 100.456C266.085 102.307 264.426 103.6 262.58 104.333V104.448L274.659 137.895H263.663L252.948 107.573H243.437V137.895H233.806V55.3203ZM255.035 94.4954C260.065 94.4954 262.58 90.0012 262.58 81.0127C262.58 78.6595 262.392 76.6728 262.018 75.0525C261.67 73.3937 261.148 72.0628 260.453 71.0598C259.784 70.0568 258.968 69.3431 258.005 68.9188C257.042 68.4558 255.971 68.2244 254.794 68.2244H243.437V94.4954H255.035Z" fill="white"/>
<path d="M194.436 55.3203H207.198L225.939 137.895H215.304L210.489 115.501H190.985L186.37 137.895H175.855L194.436 55.3203ZM207.84 103.06L200.777 68.1086H200.616L193.553 103.06H207.84Z" fill="white"/>
<path d="M133.798 55.3203H156.513C157.743 55.3203 158.987 55.4553 160.245 55.7254C161.502 55.9954 162.706 56.5162 163.857 57.2877C165.007 58.0207 166.077 59.0237 167.067 60.2968C168.057 61.5698 168.927 63.2093 169.676 65.2154C170.425 67.1828 171 69.5746 171.401 72.3907C171.829 75.2068 172.043 78.5052 172.043 82.2857C172.043 86.0663 171.816 89.3647 171.361 92.1808C170.906 94.9583 170.291 97.3308 169.515 99.2983C168.739 101.266 167.83 102.867 166.786 104.101C165.743 105.336 164.633 106.319 163.455 107.052C162.278 107.747 161.061 108.229 159.803 108.499C158.573 108.73 157.355 108.846 156.151 108.846H143.43V137.895H133.798V55.3203ZM155.028 95.9421C156.472 95.9421 157.636 95.5949 158.519 94.9005C159.429 94.2061 160.138 93.2417 160.646 92.0072C161.181 90.7727 161.542 89.3261 161.73 87.6673C161.917 86.0084 162.011 84.2146 162.011 82.2857C162.011 80.3955 161.917 78.6016 161.73 76.9042C161.542 75.2068 161.181 73.7216 160.646 72.4486C160.138 71.1369 159.429 70.1146 158.519 69.3817C157.636 68.6101 156.472 68.2244 155.028 68.2244H143.43V95.9421H155.028Z" fill="white"/>
<path d="M109.559 55.3203H119.191V137.895H109.559V55.3203Z" fill="white"/>
<path d="M57.9502 55.3203H79.2599C80.7849 55.3203 82.2697 55.4746 83.7145 55.7832C85.1859 56.0533 86.5638 56.5548 87.848 57.2877C89.1589 58.0207 90.3495 59.0237 91.4197 60.2968C92.4898 61.5312 93.4128 63.1322 94.1887 65.0996C94.9913 67.0671 95.6067 69.4203 96.0348 72.1592C96.4628 74.8982 96.6768 78.1194 96.6768 81.8228C96.6768 84.2918 96.5297 86.5099 96.2354 88.4774C95.9679 90.4062 95.5933 92.1229 95.1117 93.6274C94.6569 95.1319 94.1218 96.4436 93.5065 97.5623C92.9179 98.681 92.3159 99.6455 91.7006 100.456C90.2291 102.307 88.5703 103.6 86.7243 104.333V104.448L98.8038 137.895H87.8078L77.0928 107.573H67.5817V137.895H57.9502V55.3203ZM79.1796 94.4954C84.2094 94.4954 86.7243 90.0012 86.7243 81.0127C86.7243 78.6595 86.537 76.6728 86.1625 75.0525C85.8147 73.3937 85.293 72.0628 84.5973 71.0598C83.9285 70.0568 83.1125 69.3431 82.1493 68.9188C81.1862 68.4558 80.116 68.2244 78.9388 68.2244H67.5817V94.4954H79.1796Z" fill="white"/>
<path d="M18.5808 55.3203H31.3425L50.0838 137.895H39.449L34.6333 115.501H15.1295L10.5144 137.895H0L18.5808 55.3203ZM31.9846 103.06L24.9215 68.1086H24.761L17.6979 103.06H31.9846Z" fill="white"/>
<circle cx="114.374" cy="35.7375" r="10.3821" fill="white"/>
<circle cx="290.23" cy="35.7375" r="10.3821" fill="white"/>
<path fill-rule="evenodd" clip-rule="evenodd" d="M288.27 1.37207C288.887 -0.457379 291.474 -0.457336 292.091 1.37207L295.766 12.2734C296.213 13.6 297.843 14.0783 298.936 13.2041L307.921 6.02051C309.429 4.81469 311.607 6.21406 311.136 8.08692L308.333 19.2441C307.993 20.6018 309.105 21.8855 310.497 21.7412L321.94 20.5547C323.86 20.3557 324.936 22.71 323.528 24.0313L315.138 31.9023C314.117 32.8602 314.358 34.5414 315.608 35.1729L325.875 40.3613C326.643 40.7495 326.995 41.4733 326.982 42.1875H307.652C308.11 40.5909 308.357 38.9043 308.357 37.1602C308.357 27.1222 300.219 18.9845 290.181 18.9844C280.143 18.9844 272.005 27.1222 272.005 37.1602C272.005 38.9043 272.252 40.5908 272.71 42.1875H253.379C253.366 41.4733 253.718 40.7495 254.486 40.3613L264.753 35.1729C266.003 34.5415 266.244 32.8602 265.223 31.9023L256.833 24.0313C255.425 22.71 256.501 20.3557 258.421 20.5547L269.864 21.7412C271.256 21.8855 272.368 20.6017 272.028 19.2441L269.225 8.08692C268.755 6.2141 270.932 4.81483 272.44 6.02051L281.425 13.2041C282.519 14.0782 284.148 13.6 284.595 12.2734L288.27 1.37207Z" fill="white"/>
</svg>
