<svg width="647" height="273" viewBox="0 0 647 273" fill="none" xmlns="http://www.w3.org/2000/svg">
<path d="M563.976 109.34H583.007V272.506H563.976V109.34Z" fill="url(#paint0_linear_4513_17)"/>
<path d="M461.997 109.34H504.104C507.118 109.34 510.052 109.645 512.907 110.255C515.814 110.788 518.537 111.779 521.074 113.227C523.665 114.676 526.017 116.658 528.132 119.173C530.247 121.613 532.071 124.776 533.604 128.664C535.19 132.551 536.406 137.201 537.251 142.613C538.097 148.026 538.52 154.391 538.52 161.709C538.52 166.587 538.229 170.97 537.648 174.858C537.119 178.669 536.379 182.062 535.428 185.034C534.529 188.007 533.471 190.599 532.256 192.81C531.093 195.02 529.903 196.926 528.687 198.527C525.779 202.186 522.502 204.739 518.854 206.188V206.416L542.723 272.506H520.995L499.822 212.591H481.028V272.506H461.997V109.34ZM503.946 186.75C513.885 186.75 518.854 177.869 518.854 160.108C518.854 155.458 518.484 151.532 517.744 148.331C517.057 145.053 516.026 142.423 514.651 140.441C513.33 138.459 511.717 137.049 509.814 136.21C507.911 135.296 505.796 134.838 503.47 134.838H481.028V186.75H503.946Z" fill="url(#paint1_linear_4513_17)"/>
<path d="M384.205 109.34H409.422L446.455 272.506H425.44L415.924 228.256H377.385L368.266 272.506H347.489L384.205 109.34ZM410.691 203.672L396.734 134.609H396.417L382.46 203.672H410.691Z" fill="url(#paint2_linear_4513_17)"/>
<path d="M264.384 109.34H309.268C311.699 109.34 314.158 109.607 316.642 110.14C319.127 110.674 321.506 111.703 323.779 113.227C326.053 114.676 328.167 116.658 330.123 119.173C332.079 121.689 333.797 124.929 335.278 128.892C336.758 132.78 337.895 137.506 338.688 143.071C339.533 148.635 339.956 155.153 339.956 162.623C339.956 170.094 339.507 176.611 338.608 182.176C337.71 187.664 336.494 192.352 334.96 196.24C333.427 200.128 331.63 203.291 329.568 205.73C327.506 208.17 325.312 210.114 322.986 211.562C320.66 212.934 318.255 213.887 315.77 214.42C313.338 214.878 310.933 215.106 308.554 215.106H283.416V272.506H264.384V109.34ZM306.333 189.608C309.188 189.608 311.488 188.922 313.233 187.55C315.03 186.178 316.431 184.272 317.435 181.833C318.493 179.394 319.206 176.535 319.576 173.257C319.947 169.979 320.132 166.435 320.132 162.623C320.132 158.888 319.947 155.344 319.576 151.99C319.206 148.635 318.493 145.701 317.435 143.185C316.431 140.593 315.03 138.573 313.233 137.125C311.488 135.6 309.188 134.838 306.333 134.838H283.416V189.608H306.333Z" fill="url(#paint3_linear_4513_17)"/>
<path d="M216.486 109.34H235.518V272.506H216.486V109.34Z" fill="#FCB62A"/>
<path d="M114.508 109.34H156.616C159.629 109.34 162.564 109.645 165.418 110.255C168.326 110.788 171.049 111.779 173.586 113.227C176.177 114.676 178.529 116.658 180.644 119.173C182.758 121.613 184.582 124.776 186.115 128.664C187.701 132.551 188.917 137.201 189.763 142.613C190.609 148.026 191.032 154.391 191.032 161.709C191.032 166.587 190.741 170.97 190.16 174.858C189.631 178.669 188.891 182.062 187.939 185.034C187.041 188.007 185.983 190.599 184.767 192.81C183.604 195.02 182.415 196.926 181.199 198.527C178.291 202.186 175.014 204.739 171.366 206.188V206.416L195.235 272.506H173.507L152.334 212.591H133.54V272.506H114.508V109.34ZM156.458 186.75C166.396 186.75 171.366 177.869 171.366 160.108C171.366 155.458 170.996 151.532 170.256 148.331C169.568 145.053 168.537 142.423 167.163 140.441C165.841 138.459 164.229 137.049 162.326 136.21C160.422 135.296 158.308 134.838 155.982 134.838H133.54V186.75H156.458Z" fill="url(#paint4_linear_4513_17)"/>
<path d="M36.7155 109.34H61.9326L98.9653 272.506H77.951L68.4351 228.256H29.8958L20.7764 272.506H0L36.7155 109.34ZM63.2014 203.672L49.2447 134.609H48.9275L34.9709 203.672H63.2014Z" fill="url(#paint5_linear_4513_17)"/>
<circle cx="226.002" cy="70.6399" r="20.5149" fill="#FCB62A"/>
<circle cx="573.491" cy="70.6399" r="20.5149" fill="url(#paint6_linear_4513_17)"/>
<path fill-rule="evenodd" clip-rule="evenodd" d="M569.614 2.71187C570.833 -0.903909 575.947 -0.904005 577.165 2.71187L584.426 24.2529C585.31 26.8738 588.529 27.819 590.69 26.0918L608.444 11.8964C611.424 9.51375 615.727 12.2787 614.797 15.9794L609.259 38.0253C608.585 40.7082 610.783 43.2449 613.535 42.9599L636.145 40.6162C639.94 40.223 642.065 44.8745 639.283 47.4853L622.705 63.038C620.687 64.9306 621.165 68.2532 623.633 69.5009L643.922 79.7529C645.444 80.5219 646.138 81.9579 646.108 83.373H607.906C608.815 80.2135 609.303 76.8757 609.303 73.4238C609.303 53.5889 593.223 37.5099 573.388 37.5097C553.553 37.5099 537.474 53.5889 537.474 73.4238C537.474 76.8757 537.962 80.2135 538.872 83.373H500.67C500.641 81.9578 501.335 80.5218 502.857 79.7529L523.145 69.5009C525.614 68.2532 526.091 64.9307 524.074 63.038L507.497 47.4853C504.714 44.8745 506.838 40.2228 510.633 40.6162L533.244 42.9599C535.995 43.2449 538.193 40.7082 537.519 38.0253L531.981 15.9794C531.051 12.2786 535.354 9.51347 538.334 11.8964L556.088 26.0918C558.249 27.8191 561.469 26.874 562.353 24.2529L569.614 2.71187Z" fill="#FCB62A"/>
<defs>
<linearGradient id="paint0_linear_4513_17" x1="573.491" y1="109.34" x2="573.491" y2="272.506" gradientUnits="userSpaceOnUse">
<stop stop-color="#FFE35F"/>
<stop offset="1" stop-color="#FF7D00"/>
</linearGradient>
<linearGradient id="paint1_linear_4513_17" x1="502.36" y1="109.34" x2="502.36" y2="272.506" gradientUnits="userSpaceOnUse">
<stop stop-color="#FFE35F"/>
<stop offset="1" stop-color="#FF7D00"/>
</linearGradient>
<linearGradient id="paint2_linear_4513_17" x1="396.972" y1="109.34" x2="396.972" y2="272.506" gradientUnits="userSpaceOnUse">
<stop stop-color="#FFE35F"/>
<stop offset="1" stop-color="#FF7D00"/>
</linearGradient>
<linearGradient id="paint3_linear_4513_17" x1="302.17" y1="109.34" x2="302.17" y2="272.506" gradientUnits="userSpaceOnUse">
<stop stop-color="#FFE35F"/>
<stop offset="1" stop-color="#FF7D00"/>
</linearGradient>
<linearGradient id="paint4_linear_4513_17" x1="154.872" y1="109.34" x2="154.872" y2="272.506" gradientUnits="userSpaceOnUse">
<stop stop-color="#FFE35F"/>
<stop offset="1" stop-color="#FF7D00"/>
</linearGradient>
<linearGradient id="paint5_linear_4513_17" x1="49.4826" y1="109.34" x2="49.4826" y2="272.506" gradientUnits="userSpaceOnUse">
<stop stop-color="#FFE35F"/>
<stop offset="1" stop-color="#FF7D00"/>
</linearGradient>
<linearGradient id="paint6_linear_4513_17" x1="573.491" y1="50.125" x2="573.491" y2="91.1548" gradientUnits="userSpaceOnUse">
<stop stop-color="#FFE35F"/>
<stop offset="1" stop-color="#FF7D00"/>
</linearGradient>
</defs>
</svg>
