<?xml version="1.0" encoding="UTF-8"?>
<svg version="1.1" xmlns="http://www.w3.org/2000/svg" width="800" height="800">
<path d="M0 0 C19.75871653 17.46119135 22.62916112 50.15488782 27.24609375 74.515625 C32.27956808 101.69641017 32.27956808 101.69641017 42.93359375 127.0234375 C44 129 44 129 44 131 C44.66 131 45.32 131 46 131 C47.66666667 132.66666667 49.33333333 134.33333333 51 136 C59.90904273 138.96968091 68.46202139 136.20486569 76.59375 132.25390625 C91.19821965 124.58957713 103.8215124 114.05918945 116.265625 103.33984375 C123.67445743 97 123.67445743 97 126 97 C126 96.34 126 95.68 126 95 C127.765625 93.40625 127.765625 93.40625 130.25 91.5 C134.16141831 88.45656497 137.97785671 85.33943393 141.75 82.125 C146.16199518 78.44169564 150.65752373 74.93355959 155.3125 71.5625 C155.87485352 71.1495166 156.43720703 70.7365332 157.01660156 70.31103516 C163.47846802 65.70709793 169.02752128 63.21582177 177 64 C179.56453629 65.31514682 180.67931392 66.03794177 181.59375 68.78125 C185.42524217 89.70709185 170.5613548 114.0972708 162.29936218 132.75836182 C143.30394785 172.22110748 143.30394785 172.22110748 143 214 C145.82424196 219.87442328 150.12969761 222.57454572 156 225 C163.15882827 227.29699365 170.13837775 227.50312724 177.625 227.5625 C178.2938623 227.56811951 178.96272461 227.57373901 179.65185547 227.57952881 C198.07708013 227.63161691 216.1290482 224.30648789 234.24494934 221.26583862 C245.21617661 219.43737376 256.28572822 217.59747166 267.4375 217.6875 C268.19119873 217.69241455 268.94489746 217.6973291 269.72143555 217.70239258 C276.86238054 217.85314328 282.21300129 218.90975097 288 223.25 C290.47857314 226.65803806 290.92634863 228.80187199 291 233 C288.54815319 245.53166147 277.06957828 254.54685584 267.3125 261.625 C266.08116333 262.52569214 266.08116333 262.52569214 264.82495117 263.44458008 C257.31979452 268.87758198 249.57915108 273.91304258 241.78515625 278.91796875 C210.69548334 297.62959451 210.69548334 297.62959451 192 327 C191.47746469 333.01848707 193.22466899 338.26427777 197 343 C213.7839561 361.06548969 241.85833842 368.45423148 264.31152344 377.19970703 C309.85511967 394.96002612 309.85511967 394.96002612 317.15234375 407.921875 C318.65725793 411.61134202 318.57714403 414.02411888 318 418 C312.82615108 428.34769784 302.8796549 432.65380306 292.44921875 436.2109375 C274.56457245 441.76769888 255.6169648 444.28357014 237.16015625 447.28125 C210.50489844 451.25995438 210.50489844 451.25995438 185.9609375 461.80078125 C184 463 184 463 181 464 C181 464.66 181 465.32 181 466 C180.34 466 179.68 466 179 466 C175.85616691 472.49725506 175.20988723 478.5242353 177.5 485.375 C183.81671664 500.81348371 195.84173366 513.86031827 207 526 C208.15037574 527.30852052 209.2964181 528.62086703 210.4375 529.9375 C213.19784541 533.11221597 216.02792558 536.21537436 218.875 539.3125 C223.79462505 544.7151698 228.45583495 550.27915167 233 556 C233.41813965 556.52384277 233.8362793 557.04768555 234.26708984 557.58740234 C251.55465236 579.31793946 251.55465236 579.31793946 251 591.1875 C249.98705071 595.04936918 249.05656907 596.6822065 245.78125 598.96875 C237.30813717 603.87423638 228.80871083 604.38743093 219.3203125 602.12109375 C201.93226644 596.64440149 187.15282914 586.88168398 172 577 C159.26565193 568.55616829 159.26565193 568.55616829 146 561 C145.34128906 560.64550781 144.68257812 560.29101562 144.00390625 559.92578125 C134.86555112 555.13393422 126.45639822 552.63669745 116 554 C110.08102598 555.99548473 106.39653658 560.19858311 103.25390625 565.46484375 C91.34117999 589.55007535 101.31033333 623.87989069 106.20263672 648.68286133 C109.15444734 663.7288 111.24778031 678.38795008 111.375 693.75 C111.38893799 694.82121094 111.40287598 695.89242187 111.41723633 696.99609375 C111.36216569 706.1163633 109.99823256 714.80212093 104 722 C98.48870402 726.40903679 93.16852368 728.32203478 86.125 727.875 C71.6272791 725.92591063 60.67290713 715.12289792 52 704 C47.46147097 697.80717575 43.21642975 691.414541 39 685 C38.28328125 683.9171875 37.5665625 682.834375 36.828125 681.71875 C34.14101484 677.58107594 31.63784283 673.3942164 29.3125 669.04296875 C21.20302083 654.10912597 12.6062865 638.78391928 1.875 625.5625 C1.37991943 624.94995361 0.88483887 624.33740723 0.37475586 623.70629883 C-4.52817721 617.93029742 -9.88362592 613.34884526 -17.6875 612.6875 C-23.33904456 612.80135896 -27.47369082 614.84753927 -31.7421875 618.484375 C-45.76996253 633.09394715 -52.58812528 655.36300585 -59.91015625 673.80859375 C-60.25597244 674.67860016 -60.60178864 675.54860657 -60.95808411 676.44497681 C-62.68927892 680.80440672 -64.4108927 685.16720477 -66.11547852 689.53710938 C-70.22323504 699.99685515 -74.81887292 710.03094998 -80 720 C-81.00345186 721.99827035 -82.0046749 723.99766937 -83 726 C-83.66 726 -84.32 726 -85 726 C-85.24621094 726.74636719 -85.49242187 727.49273438 -85.74609375 728.26171875 C-87.88454998 732.9316808 -91.58324888 735.5301968 -96 738 C-100.8311693 739.259272 -103.96895197 738.56415836 -108.3125 736.1875 C-114.58030219 729.85024848 -115.30982706 720.87240848 -116.078125 712.4296875 C-116.16324341 711.51206635 -116.24836182 710.59444519 -116.33605957 709.64901733 C-117.12569313 700.55419307 -117.34697392 691.47549331 -117.46304321 682.35101318 C-116.86456117 640.42195929 -116.86456117 640.42195929 -132.375 602.5 C-138.93210782 596.25513541 -146.36163301 594.67628984 -155.19140625 594.78125 C-160.3093174 595.17986339 -165.10554838 596.50156495 -170 598 C-171.19882812 598.36544922 -171.19882812 598.36544922 -172.421875 598.73828125 C-189.82394373 604.89908075 -205.03015778 618.425563 -219 630 C-220.81169132 631.48015703 -222.62419578 632.95931934 -224.4375 634.4375 C-227.26880897 636.74746313 -230.08314337 639.07068319 -232.8671875 641.4375 C-261.17789118 665.46780551 -261.17789118 665.46780551 -275.78125 665.20703125 C-278.97522575 664.90900182 -280.62555204 664.16493785 -283 662 C-287.14044302 655.6513207 -286.35805442 649.24041375 -285 642 C-282.00223305 630.69228807 -276.94225412 619.97510927 -272.08398438 609.37402344 C-270.95567778 606.90293034 -269.84309772 604.42525041 -268.734375 601.9453125 C-267.96879275 600.23435587 -267.2031677 598.52341839 -266.4375 596.8125 C-266.05891846 595.9663916 -265.68033691 595.1202832 -265.2902832 594.24853516 C-263.61478441 590.52110232 -261.92486649 586.80794275 -260.12109375 583.140625 C-251.3154516 565.09595339 -243.29744372 544.33063994 -247.6484375 523.96484375 C-250.18057682 517.65613766 -254.55045851 513.56432695 -260.6875 510.78125 C-273.67711454 505.83954881 -286.53275806 506.3498884 -300.0859375 508.25390625 C-301.51496902 508.45153313 -301.51496902 508.45153313 -302.97286987 508.65315247 C-310.79478283 509.7654223 -318.55640526 511.13976706 -326.32444763 512.57487488 C-359.8276542 518.75789578 -359.8276542 518.75789578 -375.1875 518.8125 C-376.24018066 518.82369873 -377.29286133 518.83489746 -378.37744141 518.84643555 C-387.10380905 518.62108665 -396.33088679 516.18963368 -402.5625 509.75 C-407.23887586 503.376886 -409.11740496 495.808991 -408 488 C-405.22950644 476.2907442 -397.80220648 466.93641568 -389 459 C-388.43925781 458.49339844 -387.87851562 457.98679687 -387.30078125 457.46484375 C-383.31476323 454 -383.31476323 454 -381 454 C-381 453.34 -381 452.68 -381 452 C-378.94875462 450.46778186 -376.90078226 449.06904023 -374.75 447.6875 C-374.08540771 447.25308594 -373.42081543 446.81867188 -372.73608398 446.37109375 C-371.27577614 445.41796971 -369.81334206 444.46809769 -368.34912109 443.52099609 C-365.93172586 441.95579423 -363.52192338 440.3794151 -361.11328125 438.80078125 C-353.9767996 434.13288515 -346.83326004 429.49041703 -339.56079102 425.03662109 C-333.05739546 421.05274506 -326.91604417 416.8470014 -320.98266602 412.04614258 C-317.19173328 409 -317.19173328 409 -315 409 C-315 408.34 -315 407.68 -315 407 C-313.33333333 405.33333333 -311.66666667 403.66666667 -310 402 C-306.91984115 397.96392979 -306.38020184 395.04692784 -307 390 C-314.85843453 372.85432465 -346.0591216 365.22955978 -362.21948242 359.00537109 C-398.96222973 344.81135135 -398.96222973 344.81135135 -410 335 C-410 334.34 -410 333.68 -410 333 C-410.86625 332.690625 -410.86625 332.690625 -411.75 332.375 C-415.58590059 330.03083853 -417.47344265 327.00561335 -418.61328125 322.6640625 C-419.41377108 317.40832121 -419.15753704 313.42276477 -416.40625 308.8125 C-408.95534825 299.20911552 -396.62331611 297.16331208 -385.22241211 295.47314453 C-374.3949755 294.13976159 -363.39777452 293.92969084 -352.50878906 293.39819336 C-317.74785609 292.68244434 -317.74785609 292.68244434 -288 277 C-282.92366691 270.62204304 -281.40886718 264.52186994 -281.55859375 256.4765625 C-284.76095154 231.25445251 -305.90493521 209.4280568 -321.52539062 190.765625 C-324.75508229 186.89855048 -327.89879209 182.97048589 -331 179 C-331.69222656 178.12891602 -331.69222656 178.12891602 -332.3984375 177.24023438 C-350.35884304 154.56180352 -350.35884304 154.56180352 -349.44921875 142.08984375 C-348.73596869 138.77168043 -347.58042053 137.18343276 -345 135 C-334.98204877 129.49994835 -325.70306246 130.94198216 -315 134 C-297.65221633 139.83376796 -281.57691295 148.92192058 -265.94897461 158.30712891 C-241.04401045 173.71239996 -241.04401045 173.71239996 -213 178 C-208.71450274 176.12996483 -207.36990417 174.72659747 -205.25 170.5625 C-201.74232872 159.33308015 -201.67422807 147.64244853 -201.75 136 C-201.75177246 135.2027652 -201.75354492 134.4055304 -201.75537109 133.58413696 C-201.78617825 121.58874671 -202.25983562 109.65797806 -203 97.6875 C-203.76830791 85.18445369 -204.24121741 72.71120078 -204.29956055 60.18301392 C-204.30803713 58.46632594 -204.32152236 56.7496537 -204.34057617 55.03305054 C-204.59501205 29.62882457 -204.59501205 29.62882457 -198 20 C-194.53938179 17.40453634 -191.20058534 17.52574037 -187 18 C-168.15740359 24.52365523 -156.53482885 44.20386977 -146 60 C-145.27683594 61.07765625 -144.55367188 62.1553125 -143.80859375 63.265625 C-141.23603222 67.11188137 -138.67342955 70.96351647 -136.15234375 74.84375 C-128.90849399 85.91032951 -121.19494098 96.96918172 -112.109375 106.6171875 C-111 108 -111 108 -111 110 C-110.40832031 110.26941406 -109.81664062 110.53882813 -109.20703125 110.81640625 C-107.01291159 111.99307573 -105.49570784 113.24149599 -103.6875 114.9375 C-98.35957891 119.58526096 -92.11763914 122.20452986 -85 122 C-77.9735464 120.61355417 -72.71318056 116.56997442 -68.44140625 110.94921875 C-58.95850794 96.29383045 -55.47798448 78.2650955 -50.99365234 61.65478516 C-37.13904461 10.69569969 -37.13904461 10.69569969 -23 0 C-15.37321659 -4.29006567 -7.71787218 -4.22298667 0 0 Z M-125 197 C-126.0837793 197.3710083 -126.0837793 197.3710083 -127.18945312 197.74951172 C-147.24372359 204.73692485 -164.19373769 215.39659426 -180.4921875 228.921875 C-182.23648848 230.36730821 -184.01585074 231.77103352 -185.8203125 233.140625 C-186.53960937 233.75421875 -187.25890625 234.3678125 -188 235 C-188 235.66 -188 236.32 -188 237 C-189.32 237.66 -190.64 238.32 -192 239 C-192 239.66 -192 240.32 -192 241 C-192.99 241.33 -193.98 241.66 -195 242 C-227.71057251 276.44978495 -243.39305714 324.23970175 -242.34765625 371.203125 C-241.30080804 397.03288524 -235.2946381 420.84658573 -224 444 C-223.50757813 445.01449219 -223.01515625 446.02898437 -222.5078125 447.07421875 C-215.65200441 460.34040106 -206.00613486 472.00392745 -196 483 C-195.52868652 483.51804199 -195.05737305 484.03608398 -194.57177734 484.56982422 C-163.77698871 517.91388578 -117.14570289 538.9665532 -73 547 C-72.37196268 534.43925357 -75.93412934 520.18130578 -83.6875 510.0625 C-91.65560587 502.00350318 -103.71722284 499.81398931 -114.27929688 496.87231445 C-116.25645075 496.31797448 -118.22973057 495.75114615 -120.203125 495.18359375 C-121.36489258 494.85931396 -122.52666016 494.53503418 -123.72363281 494.20092773 C-128.60526137 492.41160353 -133.65619137 489.81782885 -136 485 C-136.80205377 479.17397055 -135.99778807 475.12122128 -133 470 C-133 469.34 -133 468.68 -133 468 C-132.34 468 -131.68 468 -131 468 C-131 467.34 -131 466.68 -131 466 C-130.29061279 465.71858154 -129.58122559 465.43716309 -128.8503418 465.1472168 C-123.80318808 463.11581848 -118.8087769 460.96541465 -113.8125 458.8125 C-112.72646484 458.35552734 -111.64042969 457.89855469 -110.52148438 457.42773438 C-99.21913472 452.53344362 -86.630152 445.57309022 -81 434 C-78.82585328 426.67574685 -79.45811261 419.55721 -82.51953125 412.60546875 C-85.36066925 407.60536573 -88.96801234 403.09425774 -93 399 C-93.66 399 -94.32 399 -95 399 C-95.23589844 398.4225 -95.47179687 397.845 -95.71484375 397.25 C-100.30891646 389.20688183 -111.5627624 383.37496368 -119.07250977 378.16210938 C-130.11309553 370.49727449 -130.11309553 370.49727449 -132.75 365.4375 C-133.15734375 364.67308594 -133.5646875 363.90867187 -133.984375 363.12109375 C-137.07852748 356.65907531 -137.00679199 349.01622459 -135.28125 342.1328125 C-133.30765106 336.89640886 -130.72098602 333.13442891 -127 329 C-127 328.34 -127 327.68 -127 327 C-126.14148438 326.60554688 -126.14148438 326.60554688 -125.265625 326.203125 C-122.86138601 324.92639119 -120.89922256 323.41827765 -118.75 321.75 C-95.81038559 305.69895785 -64.25923941 307.15710361 -37.91259766 311.45214844 C-26.44503355 313.60916552 -15.95866163 317.3255236 -6.15234375 323.6796875 C-4.1367057 325.17429617 -4.1367057 325.17429617 -2 325 C-2 325.66 -2 326.32 -2 327 C-0.8131637 328.0896512 0.42619706 329.12248565 1.6875 330.125 C9.67993211 336.97363882 13.05199058 345.24543285 14.5 355.5625 C13.07068097 365.38906836 6.35551782 371.02572276 -1.24511719 376.72949219 C-5.50520956 379.81373269 -9.91206164 382.6782482 -14.30859375 385.5625 C-27.45437143 393.65984375 -27.45437143 393.65984375 -36 406 C-37.05428091 412.89337519 -36.5625379 418.98053941 -33 425 C-25.22274403 434.33270717 -14.34679491 437.93330337 -2.6875 439.4375 C7.16001833 440.86539492 16.94826356 442.41938332 24 450 C26.66441826 454.79595287 27.73940444 458.54689226 27 464 C22.49087237 477.2877674 10.16830383 484.55446411 -1 492 C-1 492.66 -1 493.32 -1 494 C-1.556875 494.20625 -2.11375 494.4125 -2.6875 494.625 C-5.22812201 496.13564012 -6.76507497 497.93858175 -8.55859375 500.26953125 C-10 502 -10 502 -12.3515625 504.2890625 C-24.28222217 516.50127167 -35 534.51647794 -35 552 C-13.87879925 552.59955311 -13.87879925 552.59955311 7 550 C8.89105469 549.61521484 8.89105469 549.61521484 10.8203125 549.22265625 C32.6950739 544.47304163 51.68636989 533.12070559 68 518 C68.51546387 517.52304687 69.03092773 517.04609375 69.56201172 516.5546875 C77.25936509 509.34188409 83.88429552 501.58503664 90 493 C90.40959961 492.42942871 90.81919922 491.85885742 91.24121094 491.27099609 C120.91581446 449.53891316 137.04196025 393.6662329 128.82202148 342.55053711 C128.01801637 338.32864346 127.06760245 334.16250913 126 330 C125.81808105 329.25733887 125.63616211 328.51467773 125.44873047 327.74951172 C119.92677534 305.60740924 109.52687657 285.40673207 96.4375 266.8125 C96.02000488 266.21783936 95.60250977 265.62317871 95.17236328 265.01049805 C94.16925331 263.63241899 93.09140649 262.30926062 92 261 C91.34 261 90.68 261 90 261 C89.62875 260.1646875 89.62875 260.1646875 89.25 259.3125 C87.77075182 256.57589087 86.06532561 254.32349131 84 252 C83.34 252 82.68 252 82 252 C81.34 250.68 80.68 249.36 80 248 C79.34 248 78.68 248 78 248 C77.77441406 247.42894531 77.54882812 246.85789062 77.31640625 246.26953125 C75.62518364 243.35380325 73.57745702 241.7779301 70.9375 239.6875 C69.94105469 238.89601563 68.94460938 238.10453125 67.91796875 237.2890625 C66.95503906 236.53367187 65.99210937 235.77828125 65 235 C64.27425781 234.40960938 63.54851562 233.81921875 62.80078125 233.2109375 C51.11399199 223.81698499 38.60737013 216.24389812 25 210 C24.28924316 209.66758301 23.57848633 209.33516602 22.84619141 208.99267578 C9.3350499 202.73302295 -4.5937373 198.67070113 -19 195 C-20.87558594 194.50693359 -20.87558594 194.50693359 -22.7890625 194.00390625 C-55.94446063 186.06471042 -92.63720081 185.76917716 -125 197 Z " fill="#FCB62A" transform="translate(450,32)"/>
<path d="M0 0 C0 0.66 0 1.32 0 2 C0.5775 2.24621094 1.155 2.49242187 1.75 2.74609375 C9.83333094 7.25086672 14.29950053 16.04825186 16.75 24.625 C16.8325 25.40875 16.915 26.1925 17 27 C17.12375 28.0725 17.2475 29.145 17.375 30.25 C16.52021141 38.79788587 11.32287362 44.27339683 5 49.68359375 C1.02963288 52.74925482 -3.09514694 55.52262751 -7.30322266 58.24951172 C-12.60745503 61.6873653 -17.62037114 65.40709178 -22.609375 69.28515625 C-25 71 -25 71 -28 72 C-29.06716704 73.79932579 -29.06716704 73.79932579 -30 76 C-30.50789063 76.75023437 -31.01578125 77.50046875 -31.5390625 78.2734375 C-34.24680025 83.32691597 -33.90859294 89.72673567 -32.390625 95.1953125 C-31.55853376 97.23618837 -31.55853376 97.23618837 -30 100 C-29.690625 100.763125 -29.38125 101.52625 -29.0625 102.3125 C-27.67864372 104.51038939 -26.34661152 104.90219392 -24 106 C-23.21625 106.4021875 -22.4325 106.804375 -21.625 107.21875 C-15.86412725 110.03060456 -10.70722993 111.58894972 -4.37890625 112.48828125 C19.00907511 116.03027612 19.00907511 116.03027612 26.38671875 124.61328125 C29.70034919 129.29887096 30.53878705 133.34273592 30 139 C25.97316716 151.42976463 14.52015974 159.13826519 4 166 C3.01 166.33 2.02 166.66 1 167 C1 167.66 1 168.32 1 169 C-0.4609375 170.40234375 -0.4609375 170.40234375 -2.375 171.9375 C-4.83901524 173.91986617 -6.20466437 175.30699655 -8 178 C-8.66 178 -9.32 178 -10 178 C-10.23203125 178.5259375 -10.4640625 179.051875 -10.703125 179.59375 C-12.0753093 182.13973051 -13.70235572 184.40035345 -15.42700195 186.71777344 C-24.56518184 199.02792534 -29.29088041 211.22916977 -33 226 C-39.95359476 226.281269 -46.77609427 225.83382764 -53.6875 225.125 C-54.48260986 225.04652832 -55.27771973 224.96805664 -56.09692383 224.88720703 C-61.21632357 224.33355737 -66.03065634 223.35166147 -71 222 C-71.20302734 220.22109375 -71.20302734 220.22109375 -71.41015625 218.40625 C-72.49130117 209.93478898 -73.90847806 201.99837494 -77.3125 194.125 C-77.58392822 193.47853516 -77.85535645 192.83207031 -78.13500977 192.16601562 C-81.55321112 184.77213802 -87.62811022 180.91786091 -95 178 C-100.67843176 176.15405481 -106.42085167 174.53772773 -112.16943359 172.92724609 C-114.15985892 172.36655616 -116.14632316 171.79320337 -118.1328125 171.21875 C-119.30730957 170.88810547 -120.48180664 170.55746094 -121.69189453 170.21679688 C-127.24804803 168.17311651 -132.00397259 165.18543205 -135 160 C-136.25151764 153.33375297 -134.3242024 148.71347287 -131 143 C-130.34 143 -129.68 143 -129 143 C-129 142.34 -129 141.68 -129 141 C-126.66942219 139.80681854 -124.33637526 138.61925403 -122 137.4375 C-120.92480103 136.89331421 -120.92480103 136.89331421 -119.82788086 136.33813477 C-115.4779473 134.16245621 -111.09755341 132.15681488 -106.60717773 130.28955078 C-95.53440705 125.67534545 -85.11187042 119.22374083 -79.5625 108.125 C-77.81294006 98.40522257 -79.18387476 90.63131755 -84.765625 82.39453125 C-88.98624247 76.90274355 -93.6396063 72.3541104 -99 68 C-99.77601563 67.33742188 -100.55203125 66.67484375 -101.3515625 65.9921875 C-105.53973242 62.46197781 -109.75477264 59.13182871 -114.2734375 56.0390625 C-115.02246338 55.52496826 -115.77148926 55.01087402 -116.54321289 54.48120117 C-118.01584458 53.47943138 -119.49644711 52.48924308 -120.98608398 51.51293945 C-127.78558902 46.89624582 -133.15313621 41.23300727 -135 33 C-135.92040432 24.56652787 -135.07273339 17.46238176 -131 10 C-130.63390625 9.32582031 -130.2678125 8.65164063 -129.890625 7.95703125 C-121.91287508 -4.3789339 -106.4940856 -11.40601325 -92.63085938 -14.53466797 C-61.46792528 -20.77839325 -27.0303269 -17.37348907 0 0 Z " fill="#342D34" transform="translate(448,357)"/>
</svg>
